<ttFont>
          <CharString index="0">
            -104 callsubr
            -83 callsubr
            return
          </CharString>
          <CharString index="1">
            7 5 14 hvcurveto
            512 -103 callgsubr
            return
          </CharString>
          <CharString index="2">
            -75 callgsubr
            12 return
          </CharString>
          <CharString index="3">
            -107 callgsubr
            314 459 callgsubr
            -54 -31 -32 callsubr
            54 vhcurveto
            29 hlineto
            14 6 7 12 311 callgsubr
            -41 hlineto
            -102 60 callsubr
            return
          </CharString>
          <CharString index="4">
            15 -105 callgsubr
            -15 vhcurveto
            return
          </CharString>
          <CharString index="5">
            41 215 callsubr
            -55 -105 hvcurveto
            -97 callsubr
            return
          </CharString>
          <CharString index="6">
            vhcurveto
            65 -104 callgsubr
            return
          </CharString>
          <CharString index="7">
            vhcurveto
            -22 hlineto
            -54 -92 callsubr
            13 6 36 callgsubr
            return
          </CharString>
          <CharString index="8">
            -73 callgsubr
            170 -96 callsubr
            return
          </CharString>
          <CharString index="9">
            291 callsubr
            -13 return
          </CharString>
          <CharString index="10">
            -94 -25 callgsubr
            12 -6 6 -14 -100 callsubr
            return
          </CharString>
          <CharString index="11">
            -52 callgsubr
            -69 312 callgsubr
            -57 -78 callgsubr
            return
          </CharString>
          <CharString index="12">
            -81 callgsubr
            -171 vlineto
            -57 -28 -22 -50 vhcurveto
            -8 330 callgsubr
            -45 -33 callsubr
            22 hlineto
            98 57 53 106 hvcurveto
            174 -86 callsubr
            return
          </CharString>
          <CharString index="13">
            4 -84 188 callsubr
            6 -34 callgsubr
            235 vlineto
            14 -6 5 -13 vhcurveto
            -51 hlineto
            -12 -7 92 callsubr
            -37 vhcurveto
            -56 hlineto
            -54 -25 22 54 hvcurveto
            73 -39 callgsubr
            63 -75 callsubr
            return
          </CharString>
          <CharString index="14">
            -14 7 -5 13 vhcurveto
            52 -69 callsubr
            endchar
          </CharString>
          <CharString index="15">
            -28 25 57 hvcurveto
            85 vlineto
            57 21 25 46 42 23 -19 -54 vhcurveto
            -72 -33 callsubr
            49 hlineto
            return
          </CharString>
          <CharString index="16">
            rmoveto
            -45 -25 -33 -58 vhcurveto
            -20 491 callgsubr
            157 -89 callsubr
            -337 92 62 callgsubr
            -216 vlineto
            -48 callgsubr
            return
          </CharString>
          <CharString index="17">
            21 hlineto
            48 30 17 25 15 hvcurveto
            4 -187 hlineto
            -14 6 -5 13 vhcurveto
            52 hlineto
            13 6 231 callgsubr
            -29 hlineto
            -14 -6 -6 478 callgsubr
            -7 14 vhcurveto
            41 hlineto
            102 208 callsubr
            -60 58 -100 vhcurveto
            403 callgsubr
            104 227 callsubr
            314 469 callsubr
          </CharString>
          <CharString index="18">
            hlineto
            -80 callsubr
            return
          </CharString>
          <CharString index="19">
            18 443 callgsubr
            476 callsubr
            -8 -15 hvcurveto
            -18 vlineto
            -56 -29 -20 -53 vhcurveto
            -53 hlineto
            -55 -27 24 54 hvcurveto
            87 vlineto
            54 27 24 55 vhcurveto
            124 178 callgsubr
            129 -86 callsubr
            77 hlineto
            9 callgsubr
            6 -13 vhcurveto
            return
          </CharString>
          <CharString index="20">
            -97 51 -62 106 vhcurveto
            -80 callgsubr
            return
          </CharString>
          <CharString index="21">
            vlineto
            -59 callsubr
            return
          </CharString>
          <CharString index="22">
            15 4 6 13 hvcurveto
            43 535 callgsubr
            return
          </CharString>
          <CharString index="23">
            -46 callgsubr
            65 -74 callgsubr
            return
          </CharString>
          <CharString index="24">
            -100 60 -59 100 vhcurveto
            -72 callsubr
            return
          </CharString>
          <CharString index="25">
            623 -99 callgsubr
            return
          </CharString>
          <CharString index="26">
            339 callsubr
            -69 callgsubr
            return
          </CharString>
          <CharString index="27">
            7 -59 callgsubr
            return
          </CharString>
          <CharString index="28">
            27 callsubr
            109 vlineto
            217 callsubr
            endchar
          </CharString>
          <CharString index="29">
            -29 callsubr
            512 -86 callsubr
            return
          </CharString>
          <CharString index="30">
            29 -40 -71 callgsubr
            return
          </CharString>
          <CharString index="31">
            -5 -82 callsubr
            return
          </CharString>
          <CharString index="32">
            hlineto
            13 -90 callgsubr
            -13 vhcurveto
            return
          </CharString>
          <CharString index="33">
            92 -99 callgsubr
            return
          </CharString>
          <CharString index="34">
            272 547 rmoveto
            4 hlineto
            89 -320 rlineto
            -181 hlineto
            -76 -227 rmoveto
            11 4 4 13 3 hvcurveto
            38 130 rlineto
            220 hlineto
            38 -130 rlineto
            -13 2 4 -4 12 hhcurveto
            71 hlineto
            12 2 5 12 -3 hvcurveto
            -174 609 rlineto
            13 -3 -8 4 -13 hhcurveto
            -100 hlineto
            -13 -7 -4 -13 -4 hvcurveto
            -174 -609 rlineto
            -12 -3 2 -5 11 hhcurveto
            return
          </CharString>
          <CharString index="35">
            25 hlineto
            44 -47 callgsubr
            7 6 14 hvcurveto
            return
          </CharString>
          <CharString index="36">
            340 callsubr
            -277 -4 callgsubr
            -113 hlineto
            -10 19 -16 13 -20 7 rrcurveto
            4 vlineto
            36 17 24 35 57 vvcurveto
            16 vlineto
            103 -51 56 -106 vhcurveto
            -88 59 callgsubr
            77 hlineto
            55 24 -24 -52 hvcurveto
            -14 vlineto
            -51 -25 -24 -54 vhcurveto
            -52 hlineto
            -12 -7 -7 -13 hvcurveto
            -42 vlineto
            -13 6 -7 13 vhcurveto
            52 hlineto
            55 24 -23 -51 hvcurveto
            -28 vlineto
            -51 -25 -25 -54 vhcurveto
            -108 hlineto
            -14 -6 -6 -13 hvcurveto
            -43 vlineto
            -14 6 -5 14 587 callgsubr
            103 59 57 102 hvcurveto
            21 99 vlineto
            117 callgsubr
            -186 vlineto
            -14 6 373 callgsubr
            12 7 -10 callgsubr
            3 5 8 vhcurveto
            return
          </CharString>
          <CharString index="37">
            3 -68 callsubr
            return
          </CharString>
          <CharString index="38">
            hlineto
            13 6 -10 callgsubr
            4 5 7 vhcurveto
            66 -74 callgsubr
            return
          </CharString>
          <CharString index="39">
            -5 -7 hvcurveto
            return
          </CharString>
          <CharString index="40">
            -47 callsubr
            12 vhcurveto
            53 hlineto
            return
          </CharString>
          <CharString index="41">
            -14 -106 callgsubr
            14 vhcurveto
            return
          </CharString>
          <CharString index="42">
            15 6 23 37 vvcurveto
            120 -86 callsubr
            return
          </CharString>
          <CharString index="43">
            hlineto
            -74 -26 22 56 hvcurveto
            15 -72 callgsubr
            return
          </CharString>
          <CharString index="44">
            571 callsubr
            45 11 vlineto
            90 48 346 callgsubr
            return
          </CharString>
          <CharString index="45">
            13 -5 -48 callsubr
            return
          </CharString>
          <CharString index="46">
            rmoveto
            76 callgsubr
            return
          </CharString>
          <CharString index="47">
            -49 callsubr
            -63 hlineto
            -12 -5 -4 -13 hvcurveto
            -323 vlineto
            265 callgsubr
            -49 -23 25 49 hvcurveto
            334 vlineto
            -62 callsubr
            -338 vlineto
            -98 52 -57 97 vhcurveto
            return
          </CharString>
          <CharString index="48">
            7 -58 callgsubr
            return
          </CharString>
          <CharString index="49">
            vlineto
            216 callsubr
            -33 callgsubr
            return
          </CharString>
          <CharString index="50">
            -81 callgsubr
            -362 -39 callsubr
            return
          </CharString>
          <CharString index="51">
            -10 callgsubr
            3 5 8 -40 callsubr
            return
          </CharString>
          <CharString index="52">
            -14 7 -5 12 vhcurveto
            53 -52 callsubr
            return
          </CharString>
          <CharString index="53">
            hlineto
            -98 callgsubr
            return
          </CharString>
          <CharString index="54">
            14 callgsubr
            17 hlineto
            72 48 48 83 hvcurveto
            316 callgsubr
            4 5 7 vhcurveto
            258 98 callgsubr
            -89 45 -60 94 vhcurveto
            15 hlineto
            37 1 30 14 15 24 rrcurveto
            return
          </CharString>
          <CharString index="55">
            hlineto
            13 6 -10 callgsubr
            4 5 7 -40 callsubr
            return
          </CharString>
          <CharString index="56">
            -6 -13 callgsubr
            6 -6 return
          </CharString>
          <CharString index="57">
            1 585 callgsubr
            -51 -21 23 50 hvcurveto
            194 382 callsubr
            61 hlineto
            50 22 -23 -50 hvcurveto
            -194 vlineto
            -50 -22 -23 -50 vhcurveto
            13 -85 rmoveto
            97 59 57 98 hvcurveto
            200 vlineto
            99 496 callsubr
            -88 -41 callgsubr
            return
          </CharString>
          <CharString index="58">
            138 callgsubr
            -36 hlineto
            166 callsubr
            476 vlineto
            13 -6 4 -12 vhcurveto
            return
          </CharString>
          <CharString index="59">
            4 -12 vhcurveto
            -63 hlineto
            -16 callgsubr
            return
          </CharString>
          <CharString index="60">
            -22 callgsubr
            7 -5 return
          </CharString>
          <CharString index="61">
            327 rmoveto
            -7 548 callgsubr
            211 177 callsubr
            127 hlineto
            50 24 -25 -49 hvcurveto
            -84 vlineto
            -49 -24 -24 -50 vhcurveto
            -155 -327 rmoveto
            116 callgsubr
            220 199 callsubr
            101 hlineto
            107 -230 rlineto
            -14 6 7 -3 18 hhcurveto
            62 hlineto
            12 9 6 14 -8 hvcurveto
            -111 234 rlineto
            4 vlineto
            60 19 35 51 75 vvcurveto
            84 vlineto
            98 -59 58 -97 vhcurveto
            -234 77 callsubr
            return
          </CharString>
          <CharString index="62">
            -12 -6 -6 -12 -29 callgsubr
            return
          </CharString>
          <CharString index="63">
            6 13 hvcurveto
            return
          </CharString>
          <CharString index="64">
            vlineto
            36 20 19 33 575 callsubr
            13 -6 6 -14 vhcurveto
            -62 hlineto
            -35 412 callgsubr
            return
          </CharString>
          <CharString index="65">
            -76 -26 39 61 hvcurveto
            32 52 vlineto
            103 55 320 callgsubr
            6 -5 287 callsubr
            5 15 hvcurveto
            42 vlineto
            29 18 447 callgsubr
            -19 -25 -58 vhcurveto
            -118 383 callgsubr
            return
          </CharString>
          <CharString index="66">
            -98 -61 -54 -104 hvcurveto
            -114 -23 callgsubr
            112 360 callgsubr
            return
          </CharString>
          <CharString index="67">
            vhcurveto
            66 -54 callsubr
            return
          </CharString>
          <CharString index="68">
            vlineto
            -35 callsubr
            return
          </CharString>
          <CharString index="69">
            21 hlineto
            48 30 17 25 15 hvcurveto
            4 -187 hlineto
            -14 6 -5 13 vhcurveto
            52 384 callgsubr
            return
          </CharString>
          <CharString index="70">
            537 callsubr
            61 254 callsubr
            54 vhcurveto
            40 hlineto
            13 return
          </CharString>
          <CharString index="71">
            rmoveto
            -8 -3 -4 -8 vhcurveto
            -159 hlineto
            -7 -4 4 8 hvcurveto
            186 261 callgsubr
            return
          </CharString>
          <CharString index="72">
            -14 7 -5 12 -18 callgsubr
            return
          </CharString>
          <CharString index="73">
            -11 21 callsubr
            551 callsubr
            -4 273 callsubr
            20 return
          </CharString>
          <CharString index="74">
            vlineto
            -13 6 -6 13 vhcurveto
            return
          </CharString>
          <CharString index="75">
            8 callgsubr
            28 28 return
          </CharString>
          <CharString index="76">
            -43 callsubr
            43 227 callgsubr
            return
          </CharString>
          <CharString index="77">
            7 -14 callsubr
            return
          </CharString>
          <CharString index="78">
            0 callgsubr
            -34 callgsubr
            return
          </CharString>
          <CharString index="79">
            290 callsubr
            -221 vlineto
            -101 57 -51 93 vhcurveto
            20 hlineto
            95 56 50 102 420 callsubr
            7 3 413 callgsubr
            return
          </CharString>
          <CharString index="80">
            41 272 callsubr
            -99 -5 callsubr
            54 hlineto
            12 7 6 14 hvcurveto
            511 vlineto
            -67 callgsubr
            endchar
          </CharString>
          <CharString index="81">
            208 callgsubr
            323 vlineto
            51 24 34 58 vhcurveto
            47 hlineto
            50 23 -25 -49 hvcurveto
            -334 171 callsubr
            338 vlineto
            99 -53 56 -98 vhcurveto
            -44 hlineto
            -48 -37 -18 -35 -16 hvcurveto
            -4 36 hlineto
            -62 callsubr
            -476 2 callsubr
            return
          </CharString>
          <CharString index="82">
            111 callsubr
            6 -6 12 vhcurveto
            53 hlineto
            13 7 53 callsubr
          </CharString>
          <CharString index="83">
            34 -2 callsubr
            44 vlineto
            return
          </CharString>
          <CharString index="84">
            hlineto
            -19 callsubr
            return
          </CharString>
          <CharString index="85">
            -89 callsubr
            -285 vlineto
            -48 -25 -38 -61 vhcurveto
            -33 hlineto
            -56 -25 29 53 hvcurveto
            61 254 callsubr
            55 vhcurveto
            39 hlineto
            14 6 7 12 311 callgsubr
            -54 hlineto
            -101 -58 -59 -99 hvcurveto
            return
          </CharString>
          <CharString index="86">
            vlineto
            -55 -24 -23 -55 vhcurveto
            -116 hlineto
            -52 -22 17 51 hvcurveto
            26 vlineto
            40 18 22 43 vhcurveto
            28 hlineto
            14 6 6 11 311 callgsubr
            -35 hlineto
            -35 -19 19 35 hvcurveto
            68 vlineto
            41 18 23 42 vhcurveto
            return
          </CharString>
          <CharString index="87">
            163 callsubr
            429 4 vlineto
            240 -430 rlineto
            -2 2 7 -14 17 hhcurveto
            54 hlineto
            246 callgsubr
            -62 368 callgsubr
            -13 hvcurveto
            -429 -4 vlineto
            -242 435 rlineto
            2 -1 -5 9 -16 hhcurveto
            -56 77 callsubr
            return
          </CharString>
          <CharString index="88">
            -45 -37 callgsubr
            return
          </CharString>
          <CharString index="89">
            -8 -3 -4 -8 vhcurveto
            return
          </CharString>
          <CharString index="90">
            12 callgsubr
            -6 return
          </CharString>
          <CharString index="91">
            120 callgsubr
            -270 67 callgsubr
            return
          </CharString>
          <CharString index="92">
            14 6 6 12 hvcurveto
            41 146 callsubr
            -62 hlineto
            return
          </CharString>
          <CharString index="93">
            -34 callgsubr
            72 vlineto
            8 3 4 8 vhcurveto
            return
          </CharString>
          <CharString index="94">
            245 -94 callgsubr
            return
          </CharString>
          <CharString index="95">
            hlineto
            111 54 20 callsubr
            return
          </CharString>
          <CharString index="96">
            13 callsubr
            10 hhcurveto
            return
          </CharString>
          <CharString index="97">
            6 -44 callsubr
            return
          </CharString>
          <CharString index="98">
            -82 callgsubr
            -229 vlineto
            -94 254 callgsubr
            48 hlineto
            return
          </CharString>
          <CharString index="99">
            4 8 14 callsubr
            return
          </CharString>
          <CharString index="100">
            hlineto
            -59 callsubr
            return
          </CharString>
          <CharString index="101">
            rmoveto
            350 callsubr
            -111 hlineto
            -101 -53 -55 -102 hvcurveto
            return
          </CharString>
          <CharString index="102">
            hlineto
            129 callsubr
            return
          </CharString>
          <CharString index="103">
            7 3 5 return
          </CharString>
          <CharString index="104">
            rmoveto
            -9 callsubr
            return
          </CharString>
          <CharString index="105">
            hlineto
            35 callgsubr
            return
          </CharString>
          <CharString index="106">
            134 -209 6 callsubr
            return
          </CharString>
          <CharString index="107">
            109 callgsubr
            109 496 callgsubr
            -109 rlineto
            -7 5 6 -5 10 hhcurveto
            66 hlineto
            11 6 4 9 6 451 callsubr
            return
          </CharString>
          <CharString index="108">
            rrcurveto
            5 callgsubr
            endchar
          </CharString>
          <CharString index="109">
            vlineto
            151 callgsubr
            return
          </CharString>
          <CharString index="110">
            -175 167 rlineto
            7 12 497 callgsubr
            339 callgsubr
            return
          </CharString>
          <CharString index="111">
            112 callgsubr
            -57 vlineto
            513 callgsubr
            return
          </CharString>
          <CharString index="112">
            3 46 17 rmoveto
            220 callgsubr
            380 hlineto
            13 4 7 12 hvcurveto
            56 vlineto
            12 -4 4 -13 vhcurveto
            -282 4 hlineto
            278 426 rlineto
            8 12 3 9 18 vvcurveto
            66 157 callsubr
            -354 484 callsubr
            -11 hvcurveto
            -57 vlineto
            -11 5 -6 13 vhcurveto
            265 -4 hlineto
            -289 -447 rlineto
            -9 -11 0 -12 -14 vvcurveto
            return
          </CharString>
          <CharString index="113">
            rlineto
            -5 4 6 -7 10 hhcurveto
            57 196 callgsubr
            4 -2 6 -3 4 hvcurveto
            return
          </CharString>
          <CharString index="114">
            rmoveto
            -57 callgsubr
            return
          </CharString>
          <CharString index="115">
            -57 -60 -99 -1 hvcurveto
            return
          </CharString>
          <CharString index="116">
            80 -10 -52 43 -91 hhcurveto
            -67 383 callgsubr
            -45 vlineto
            -11 6 -6 14 vhcurveto
            64 hlineto
            48 30 -22 -59 hvcurveto
            -64 vlineto
            -58 -31 -22 -49 vhcurveto
            -79 hlineto
            -14 -5 -7 -11 hvcurveto
            -44 vlineto
            -14 159 callgsubr
            84 hlineto
            89 53 42 79 11 hvcurveto
            return
          </CharString>
          <CharString index="117">
            rmoveto
            -19 15 rlineto
            11 6 5 13 17 vvcurveto
            20 vlineto
            35 -27 rlineto
            -12 -228 rmoveto
            -54 -27 -29 -54 vhcurveto
            -84 hlineto
            -55 -26 29 54 hvcurveto
            36 vlineto
            54 20 27 55 vhcurveto
            96 hlineto
            54 21 -27 -54 hvcurveto
            -235 380 rmoveto
            22 -17 rlineto
            0 vlineto
            368 callsubr
            hvcurveto
            -47 vlineto
            -45 35 rlineto
            -119 104 308 callgsubr
            64 hlineto
            7 -1 2 476 callgsubr
            16 -29 28 -16 vhcurveto
            -4 vlineto
            -47 -25 -18 -43 -62 vvcurveto
            -42 vlineto
            return
          </CharString>
          <CharString index="118">
            3 callsubr
            -101 183 callsubr
            -100 61 return
          </CharString>
          <CharString index="119">
            40 325 hmoveto
            98 57 57 98 hvcurveto
            168 vlineto
            14 -8 7 -13 vhcurveto
            -168 hlineto
            -13 -4 -5 -12 hvcurveto
            -51 174 callsubr
            81 439 callsubr
            -90 288 callsubr
            -79 hlineto
            -49 -23 559 callsubr
            23 25 49 vhcurveto
            79 289 callsubr
            -32 vlineto
            -13 5 -5 538 callsubr
            5 13 hvcurveto
            36 vlineto
            99 -57 56 -98 vhcurveto
            -107 hlineto
            -98 -57 557 callgsubr
            57 -57 98 vhcurveto
            return
          </CharString>
          <CharString index="120">
            rlineto
            -5 3 6 -7 return
          </CharString>
          <CharString index="121">
            hvcurveto
            186 -86 callsubr
            return
          </CharString>
          <CharString index="122">
            290 callsubr
            -285 vlineto
            -88 callgsubr
            -102 520 callgsubr
            -70 vlineto
            233 callsubr
            -92 callgsubr
          </CharString>
          <CharString index="123">
            37 callgsubr
            381 callsubr
            return
          </CharString>
          <CharString index="124">
            225 callsubr
            -42 57 callgsubr
            return
          </CharString>
          <CharString index="125">
            -14 callgsubr
            164 hlineto
            return
          </CharString>
          <CharString index="126">
            6 14 hvcurveto
            return
          </CharString>
          <CharString index="127">
            57 98 hvcurveto
            85 86 callsubr
            return
          </CharString>
          <CharString index="128">
            106 callgsubr
            8 10 5 -1 4 -2 return
          </CharString>
          <CharString index="129">
            20 33 18 152 callsubr
            return
          </CharString>
          <CharString index="130">
            rmoveto
            1 callgsubr
            return
          </CharString>
          <CharString index="131">
            -7 callgsubr
            -128 vlineto
            -7 -3 334 callsubr
            -70 -44 -43 -65 428 callgsubr
            hvcurveto
            -6 callgsubr
            return
          </CharString>
          <CharString index="132">
            34 15 -10 -32 hvcurveto
            -39 vlineto
            -32 -12 -14 -37 vhcurveto
            -79 hlineto
            -38 -21 15 41 hvcurveto
            10 vlineto
            14 -7 5 -13 vhcurveto
            473 callsubr
            -188 vlineto
            -14 6 -5 13 vhcurveto
            50 hlineto
            13 7 -34 callgsubr
            73 4 vlineto
            -21 11 24 -10 35 hhcurveto
            76 hlineto
            80 48 46 78 hvcurveto
            47 vlineto
            77 -48 37 -80 vhcurveto
            -97 hlineto
            372 callgsubr
            8 vlineto
            32 12 14 37 vhcurveto
            151 189 callsubr
            return
          </CharString>
          <CharString index="133">
            -1 callsubr
            -144 222 rlineto
            return
          </CharString>
          <CharString index="134">
            28 callgsubr
            -11 hlineto
            -54 1 -24 19 59 vvcurveto
            return
          </CharString>
          <CharString index="135">
            hvcurveto
            66 vlineto
            101 -59 58 -100 vhcurveto
            226 callsubr
            return
          </CharString>
          <CharString index="136">
            49 101 callsubr
            366 callsubr
            return
          </CharString>
          <CharString index="137">
            -36 123 -162 rmoveto
            111 46 73 100 28 hvcurveto
            137 481 rlineto
            12 2 -6 6 -12 hhcurveto
            -64 hlineto
            -10 -8 -5 -12 -2 hvcurveto
            -109 -392 rlineto
            -4 hlineto
            -109 392 rlineto
            13 -3 -7 4 -10 hhcurveto
            -67 hlineto
            -12 -4 -5 -12 3 hvcurveto
            133 -449 rlineto
            -11 4 5 -6 12 hhcurveto
            40 hlineto
            -64 -18 -18 -39 -88 hhcurveto
            -23 hlineto
            -13 -4 -7 -11 hvcurveto
            -51 174 callsubr
            return
          </CharString>
          <CharString index="138">
            rmoveto
            7 4 432 callgsubr
            -682 hlineto
            81 callsubr
            258 459 callgsubr
            -55 -30 -32 callsubr
            54 vhcurveto
            29 hlineto
            14 6 7 12 311 callgsubr
            -42 hlineto
            -101 582 callgsubr
            99 vhcurveto
            25 hlineto
            45 -47 callgsubr
            6 6 14 hvcurveto
            294 vlineto
            47 27 27 49 vhcurveto
            28 hlineto
            55 30 73 callgsubr
            -29 hlineto
            -13 -7 -6 -12 hvcurveto
            -44 vlineto
            -12 7 268 callgsubr
            101 57 60 99 1 28 callsubr
            -14 hvcurveto
            -4 hlineto
            return
          </CharString>
          <CharString index="139">
            159 -13 callsubr
            return
          </CharString>
          <CharString index="140">
            7 -1 3 return
          </CharString>
          <CharString index="141">
            47 31 callgsubr
            return
          </CharString>
          <CharString index="142">
            hlineto
            12 7 6 14 hvcurveto
            294 156 callsubr
            101 58 60 99 86 callgsubr
            314 -9 callgsubr
          </CharString>
          <CharString index="143">
            16 26 15 hvcurveto
            4 return
          </CharString>
          <CharString index="144">
            3 callgsubr
            155 vlineto
            183 -201 rlineto
            -17 -18 -22 -15 -33 hhcurveto
            return
          </CharString>
          <CharString index="145">
            450 callsubr
            48 361 callsubr
            -63 hlineto
            -11 -6 -6 -12 hvcurveto
            -44 288 callsubr
            -87 hlineto
            -49 -23 559 callsubr
            23 25 49 vhcurveto
            87 hlineto
            50 22 -25 -49 538 callgsubr
            11 vhcurveto
            63 hlineto
            12 6 6 12 hvcurveto
            48 vlineto
            99 -58 56 -97 vhcurveto
            -116 hlineto
            -98 -57 557 callgsubr
            57 -57 98 vhcurveto
            endchar
          </CharString>
          <CharString index="146">
            -12 -5 -5 -13 hvcurveto
            -53 vlineto
            -13 5 -6 12 vhcurveto
            55 hlineto
            12 6 484 callgsubr
            393 callsubr
            return
          </CharString>
          <CharString index="147">
            hlineto
            43 callgsubr
            return
          </CharString>
          <CharString index="148">
            296 callsubr
            -186 185 callsubr
            127 191 callgsubr
            return
          </CharString>
          <CharString index="149">
            92 rmoveto
            -85 callgsubr
            return
          </CharString>
          <CharString index="150">
            vlineto
            81 callgsubr
            72 335 callgsubr
            return
          </CharString>
          <CharString index="151">
            508 callgsubr
            339 callgsubr
            -101 183 callsubr
            -100 61 -60 99 vhcurveto
            return
          </CharString>
          <CharString index="152">
            77 callgsubr
            181 -172 rlineto
            -11 -14 -19 -6 -25 hhcurveto
            return
          </CharString>
          <CharString index="153">
            rmoveto
            88 callsubr
            63 359 callsubr
            return
          </CharString>
          <CharString index="154">
            -56 callgsubr
            56 -28 callsubr
            -110 hmoveto
            -80 callsubr
            -224 vlineto
            -50 -26 -19 -40 vhcurveto
            -10 29 callgsubr
            endchar
          </CharString>
          <CharString index="155">
            281 rmoveto
            -68 -34 -45 -82 vhcurveto
            -44 hlineto
            -77 571 callsubr
            58 11 vlineto
            90 48 39 87 hvcurveto
            8 vlineto
            38 -16 24 328 callgsubr
            -417 -120 206 callsubr
            162 471 callsubr
            49 20 -18 -45 hvcurveto
            -4 vlineto
            -49 366 callsubr
            return
          </CharString>
          <CharString index="156">
            51 callgsubr
            90 hlineto
            return
          </CharString>
          <CharString index="157">
            hlineto
            14 355 callsubr
            -14 vhcurveto
            return
          </CharString>
          <CharString index="158">
            hlineto
            -55 -27 27 53 hvcurveto
            33 16 callsubr
            return
          </CharString>
          <CharString index="159">
            -102 callsubr
            22 18 44 44 return
          </CharString>
          <CharString index="160">
            40 callgsubr
            -112 vhcurveto
            endchar
          </CharString>
          <CharString index="161">
            5 286 313 callgsubr
            221 vlineto
            187 387 rlineto
            11 6 -7 7 -10 hhcurveto
            -80 hlineto
            -10 -6 -5 -12 -4 hvcurveto
            -121 -275 rlineto
            -6 hlineto
            -123 275 rlineto
            12 -5 -5 5 -10 hhcurveto
            -80 hlineto
            -9 -7 -7 -11 5 hvcurveto
            187 -387 rlineto
            -221 228 callsubr
            return
          </CharString>
          <CharString index="162">
            258 callgsubr
            72 hlineto
            13 7 5 13 hvcurveto
            44 251 callsubr
            endchar
          </CharString>
          <CharString index="163">
            -53 414 hmoveto
            323 callsubr
            52 vlineto
            11 -4 7 -13 vhcurveto
            -232 482 callgsubr
            529 110 callgsubr
            return
          </CharString>
          <CharString index="164">
            419 callgsubr
            23 17 14 27 hvcurveto
            return
          </CharString>
          <CharString index="165">
            330 callgsubr
            -42 -33 callsubr
            return
          </CharString>
          <CharString index="166">
            255 vlineto
            14 -6 5 -13 vhcurveto
            -51 hlineto
            -12 -7 92 callsubr
            -37 vhcurveto
            -56 hlineto
            -54 -25 22 54 hvcurveto
            73 -39 callgsubr
            60 -75 callsubr
            endchar
          </CharString>
          <CharString index="167">
            8 callsubr
            -66 vlineto
            return
          </CharString>
          <CharString index="168">
            vlineto
            32 12 14 37 vhcurveto
            115 hlineto
            25 21 210 callgsubr
            return
          </CharString>
          <CharString index="169">
            72 callsubr
            -53 -55 -102 hvcurveto
            return
          </CharString>
          <CharString index="170">
            -6 -6 153 callgsubr
            return
          </CharString>
          <CharString index="171">
            21 callgsubr
            419 callsubr
            return
          </CharString>
          <CharString index="172">
            92 67 callsubr
            return
          </CharString>
          <CharString index="173">
            -36 vlineto
            -13 430 callgsubr
            51 hlineto
            130 callgsubr
            31 vlineto
            54 27 23 54 vhcurveto
            33 hlineto
            return
          </CharString>
          <CharString index="174">
            rmoveto
            17 callgsubr
            return
          </CharString>
          <CharString index="175">
            rmoveto
            -13 68 callgsubr
            -6 13 vhcurveto
            65 440 callgsubr
            -324 vlineto
            -102 66 -76 114 vhcurveto
            163 hlineto
            13 1 6 6 13 vvcurveto
            44 vlineto
            12 -5 7 -14 vhcurveto
            -145 hlineto
            -71 -37 35 63 hvcurveto
            321 -86 callsubr
            192 hlineto
            7 5 -68 callsubr
            -109 vlineto
            -59 -31 -15 -49 vhcurveto
            -25 58 callsubr
            37 hlineto
            98 59 50 104 558 callsubr
            9 vhcurveto
            49 hlineto
            13 6 6 19 callgsubr
            endchar
          </CharString>
          <CharString index="176">
            82 callgsubr
            -3 12 -4 207 callsubr
            return
          </CharString>
          <CharString index="177">
            rmoveto
            45 40 19 35 16 hvcurveto
            4 -76 hlineto
            -50 -22 -24 -51 vhcurveto
            -173 190 callgsubr
            -52 vlineto
            -12 4 -4 13 vhcurveto
            188 hlineto
            97 59 56 98 hvcurveto
            495 vlineto
            13 -6 4 -12 vhcurveto
            -224 hlineto
            -97 570 callgsubr
            -175 vlineto
            -98 52 -57 97 vhcurveto
            return
          </CharString>
          <CharString index="178">
            rmoveto
            125 callgsubr
            -482 59 callgsubr
            293 205 callgsubr
            endchar
          </CharString>
          <CharString index="179">
            4 callsubr
            -101 return
          </CharString>
          <CharString index="180">
            21 -20 -60 hvcurveto
            -18 vlineto
            -14 return
          </CharString>
          <CharString index="181">
            hlineto
            -70 -44 -44 -65 -25 3 -24 7 -20 hvcurveto
            -15 -53 callgsubr
            10 36 vhcurveto
            return
          </CharString>
          <CharString index="182">
            rmoveto
            8 9 2 5 8 vvcurveto
            7 -3 3 -9 7 vhcurveto
            -21 16 rlineto
            4 -5 -4 1 -3 hhcurveto
            -8 -5 -7 -8 -5 hvcurveto
            -32 -22 -20 -26 -35 hhcurveto
            -4 hlineto
            -86 callgsubr
            -77 36 -57 74 vhcurveto
            6 hlineto
            7 7 2 0 hvcurveto
            -4 vlineto
            -1 -33 -24 -43 -34 hvcurveto
            -62 -78 rlineto
            -3 -4 -2 -4 -4 vvcurveto
            -8 4 -6 10 vhcurveto
            60 hlineto
            19 8 10 13 11 hvcurveto
            return
          </CharString>
          <CharString index="183">
            411 rmoveto
            -4 hlineto
            20 -11 -24 11 -37 379 callsubr
            147 callgsubr
            return
          </CharString>
          <CharString index="184">
            hlineto
            -16 callgsubr
            -609 2 callsubr
            return
          </CharString>
          <CharString index="185">
            439 callgsubr
            -64 368 callgsubr
            -13 hvcurveto
            return
          </CharString>
          <CharString index="186">
            47 vlineto
            77 -48 37 -80 vhcurveto
            -91 hlineto
            -34 -16 8 38 hvcurveto
            8 vlineto
            37 16 9 34 vhcurveto
            return
          </CharString>
          <CharString index="187">
            191 callsubr
            195 callgsubr
            return
          </CharString>
          <CharString index="188">
            -13 -7 -17 callgsubr
            430 callgsubr
            return
          </CharString>
          <CharString index="189">
            -5 callsubr
            54 91 callgsubr
            -590 -56 callgsubr
            411 182 callgsubr
            -27 27 53 hvcurveto
            33 37 callgsubr
            return
          </CharString>
          <CharString index="190">
            hlineto
            -13 -6 123 callgsubr
            159 callgsubr
            39 510 callgsubr
            -78 150 callgsubr
            105 490 callgsubr
            return
          </CharString>
          <CharString index="191">
            -6 callsubr
            -75 vlineto
            return
          </CharString>
          <CharString index="192">
            -4 hlineto
            -21 -10 -11 -20 -32 vvcurveto
            -79 vlineto
            -41 20 -30 38 -9 vhcurveto
            -4 vlineto
            -41 -14 -17 -35 -48 vvcurveto
            return
          </CharString>
          <CharString index="193">
            vlineto
            94 -55 45 -90 -95 -51 -45 -94 vhcurveto
            return
          </CharString>
          <CharString index="194">
            10 hlineto
            48 15 -30 -44 128 callsubr
            return
          </CharString>
          <CharString index="195">
            13 -5 4 -12 vhcurveto
            -63 77 callsubr
            return
          </CharString>
          <CharString index="196">
            634 136 254 rmoveto
            20 hlineto
            72 2 45 47 82 vvcurveto
            316 callgsubr
            4 5 7 vhcurveto
            207 -54 callsubr
            -496 hlineto
            -87 callgsubr
            return
          </CharString>
          <CharString index="197">
            517 callsubr
            -29 21 vhcurveto
            15 271 callgsubr
            9 vhcurveto
            61 183 callgsubr
          </CharString>
          <CharString index="198">
            hlineto
            34 16 -12 -38 hvcurveto
            -30 vlineto
            -37 -16 -13 -34 vhcurveto
            return
          </CharString>
          <CharString index="199">
            -5 369 callgsubr
            -41 -22 -19 return
          </CharString>
          <CharString index="200">
            16 callgsubr
            -102 183 callsubr
            -100 61 -59 99 vhcurveto
            -27 callsubr
          </CharString>
          <CharString index="201">
            105 callgsubr
            7 vhcurveto
            return
          </CharString>
          <CharString index="202">
            -101 -53 -55 -102 hvcurveto
            -75 vlineto
            -87 callsubr
            return
          </CharString>
          <CharString index="203">
            8 -70 callsubr
            return
          </CharString>
          <CharString index="204">
            rmoveto
            65 callgsubr
            19 hlineto
            72 47 49 82 hvcurveto
            146 -86 callsubr
            57 -74 callgsubr
            -348 -56 callgsubr
            179 -81 callgsubr
            endchar
          </CharString>
          <CharString index="205">
            rmoveto
            45 callgsubr
            return
          </CharString>
          <CharString index="206">
            137 callsubr
            -112 312 rmoveto
            return
          </CharString>
          <CharString index="207">
            -5 -2 -4 -6 vvcurveto
            -9 7 -4 10 238 callgsubr
            77 return
          </CharString>
          <CharString index="208">
            23 callgsubr
            -50 return
          </CharString>
          <CharString index="209">
            -20 -57 313 callsubr
            return
          </CharString>
          <CharString index="210">
            -69 41 -64 82 vhcurveto
            15 hlineto
            3 7 0 1 2 hvcurveto
            -4 vlineto
            0 -39 -25 -52 -54 vhcurveto
            -72 -76 166 callgsubr
            65 hlineto
            13 9 4 10 8 hvcurveto
            100 110 77 85 rlineto
            4 return
          </CharString>
          <CharString index="211">
            -87 callsubr
            endchar
          </CharString>
          <CharString index="212">
            -5 -13 hvcurveto
            -43 vlineto
            -13 return
          </CharString>
          <CharString index="213">
            15 30 47 71 vvcurveto
            115 callgsubr
          </CharString>
          <CharString index="214">
            rmoveto
            12 -5 -9 541 callsubr
            -4 -7 -10 7 hvcurveto
            84 586 callgsubr
            8 -4 9 hhcurveto
            48 hlineto
            11 3 5 12 -6 hvcurveto
            endchar
          </CharString>
          <CharString index="215">
            161 callgsubr
            7 10 return
          </CharString>
          <CharString index="216">
            hlineto
            -70 -44 -44 181 callsubr
            return
          </CharString>
          <CharString index="217">
            25 572 callsubr
            148 332 callgsubr
            return
          </CharString>
          <CharString index="218">
            hlineto
            54 73 callsubr
            return
          </CharString>
          <CharString index="219">
            -503 -71 896 rmoveto
            393 callsubr
            -41 hlineto
            -12 -5 -5 -13 542 callgsubr
            539 callsubr
            6 13 hvcurveto
            18 -159 rmoveto
            79 39 43 83 hvcurveto
            7 vlineto
            18 -7 9 -15 vhcurveto
            -37 hlineto
            -12 -10 -7 -18 hvcurveto
            -9 vlineto
            -36 -14 -15 -38 vhcurveto
            -83 hlineto
            -39 -14 15 36 hvcurveto
            9 vlineto
            18 -7 236 callgsubr
            endchar
          </CharString>
          <CharString index="220">
            -56 callgsubr
            320 225 callsubr
            -42 vlineto
            -18 2 -14 6 -13 vhcurveto
            -149 hlineto
            -69 -44 -44 161 callgsubr
            6 11 71 callgsubr
            122 hlineto
            -9 -16 -5 -20 -23 vvcurveto
            -33 vlineto
            -93 53 -52 92 vhcurveto
            94 hlineto
            return
          </CharString>
          <CharString index="221" raw="1">
            4907f709 0a0b  
          </CharString>
          <CharString index="222">
            -6 164 callgsubr
            return
          </CharString>
          <CharString index="223">
            7 -70 callsubr
            return
          </CharString>
          <CharString index="224" raw="1">
            27c750ef 1ef7131d 0b 
          </CharString>
          <CharString index="225">
            0 -29 -13 -39 -42 vhcurveto
            -52 -55 166 callgsubr
            return
          </CharString>
          <CharString index="226">
            307 rmoveto
            -50 -26 -19 -40 vhcurveto
            -10 29 callgsubr
            120 -89 callsubr
            return
          </CharString>
          <CharString index="227">
            171 callgsubr
            -173 vlineto
            -12 return
          </CharString>
          <CharString index="228">
            6 11 hvcurveto
            96 vlineto
            12 -6 135 callsubr
            return
          </CharString>
          <CharString index="229">
            -2 129 callgsubr
            return
          </CharString>
          <CharString index="230">
            -95 64 -43 88 vhcurveto
            43 -4 hlineto
            0 -26 -15 -38 -36 vhcurveto
            -50 -48 rlineto
            -3 -4 -1 -3 -4 435 callsubr
            12 8 4 5 5 hvcurveto
            8 7 60 56 26 32 26 25 20 22 10 13 rrcurveto
            4 -105 hlineto
            -14 7 -5 12 vhcurveto
            53 hlineto
            13 6 -56 callsubr
            return
          </CharString>
          <CharString index="231">
            298 callgsubr
            -273 vlineto
            -56 -26 -38 566 callsubr
            -49 -20 18 52 hvcurveto
            25 221 callsubr
            return
          </CharString>
          <CharString index="232">
            rmoveto
            -27 callgsubr
            157 -89 callsubr
            -206 vlineto
            -45 -25 -33 -58 vhcurveto
            return
          </CharString>
          <CharString index="233">
            hlineto
            114 callgsubr
            return
          </CharString>
          <CharString index="234">
            7 486 callsubr
            -13 vhcurveto
            -48 hlineto
            -11 431 callsubr
            -7 vlineto
            -56 -28 -20 -54 vhcurveto
            -63 hlineto
            -54 -27 24 54 hvcurveto
            32 vlineto
            54 27 24 54 vhcurveto
            132 178 callgsubr
            return
          </CharString>
          <CharString index="235">
            hvcurveto
            -300 43 callsubr
            return
          </CharString>
          <CharString index="236">
            -14 196 callsubr
            return
          </CharString>
          <CharString index="237">
            hlineto
            -23 -13 424 callgsubr
            -79 hlineto
            -42 callsubr
            -94 vlineto
            return
          </CharString>
          <CharString index="238">
            hmoveto
            139 callsubr
            return
          </CharString>
          <CharString index="239">
            vhcurveto
            -4 vlineto
            -40 -13 454 callgsubr
            return
          </CharString>
          <CharString index="240">
            -8 220 callsubr
            return
          </CharString>
          <CharString index="241">
            hlineto
            32 callgsubr
            return
          </CharString>
          <CharString index="242">
            4 -10 173 callgsubr
            return
          </CharString>
          <CharString index="243">
            -1 callgsubr
            -23 vlineto
            -82 43 -32 89 vhcurveto
            11 callgsubr
            return
          </CharString>
          <CharString index="244">
            -300 rmoveto
            37 callsubr
            return
          </CharString>
          <CharString index="245">
            23 callsubr
            304 112 callgsubr
            -43 95 callgsubr
            -110 hlineto
            -80 -52 -36 -79 hvcurveto
            -12 vlineto
            -82 43 -31 89 vhcurveto
            104 hlineto
            34 16 -11 401 callsubr
            -22 7 42 170 callgsubr
            return
          </CharString>
          <CharString index="246">
            116 callgsubr
            669 vlineto
            -62 callsubr
            -669 2 callsubr
            return
          </CharString>
          <CharString index="247">
            652 rmoveto
            -45 15 -32 52 25 18 6 37 19 vhcurveto
            27 16 3 6 13 hhcurveto
            15 5 -8 -35 hvcurveto
            -18 vlineto
            -10 2 -2 8 vhcurveto
            30 hlineto
            7 2 2 10 hvcurveto
            38 vlineto
            45 -15 32 -52 -26 -15 -8 -30 -17 vhcurveto
            -32 -19 -5 -7 -11 hhcurveto
            -16 -4 9 34 hvcurveto
            19 vlineto
            9 -3 2 -7 vhcurveto
            -30 hlineto
            -7 -3 -2 -9 hvcurveto
            endchar
          </CharString>
          <CharString index="248">
            rmoveto
            -73 callgsubr
            98 85 callsubr
            -36 vlineto
            return
          </CharString>
          <CharString index="249">
            85 callgsubr
            98 hlineto
            126 callgsubr
            endchar
          </CharString>
          <CharString index="250">
            274 callgsubr
            -61 vhcurveto
            -79 hlineto
            -14 -6 -7 427 callgsubr
            477 callsubr
            55 96 hvcurveto
            return
          </CharString>
          <CharString index="251">
            -27 134 callgsubr
            return
          </CharString>
          <CharString index="252">
            6 11 hvcurveto
            96 vlineto
            12 return
          </CharString>
          <CharString index="253">
            42 callgsubr
            -14 vhcurveto
            return
          </CharString>
          <CharString index="254">
            -91 44 -41 88 vhcurveto
            35 hlineto
            14 7 5 15 hvcurveto
            34 vlineto
            13 -7 7 -14 vhcurveto
            -35 hlineto
            -41 -7 19 39 39 10 24 43 hvcurveto
            31 hlineto
            87 4 -54 -112 52 hvcurveto
            -10 5 7 -5 8 hhcurveto
            4 3 1 2 5 hvcurveto
            32 13 rlineto
            9 3 3 6 7 vvcurveto
            3 -1 5 -2 4 vhcurveto
            125 -52 -27 89 -135 hhcurveto
            return
          </CharString>
          <CharString index="255">
            rmoveto
            568 callgsubr
            46 vlineto
            13 -5 5 -14 vhcurveto
            -306 280 callsubr
            -29 143 callsubr
            42 vlineto
            34 -13 23 -23 10 vhcurveto
            4 vlineto
            return
          </CharString>
          <CharString index="256">
            241 rmoveto
            -48 -27 -27 -49 vhcurveto
            -28 hlineto
            -54 -31 -32 callsubr
            54 vhcurveto
            29 hlineto
            14 6 7 12 311 callgsubr
            -41 hlineto
            return
          </CharString>
          <CharString index="257">
            -16 -50 vhcurveto
            -63 126 callsubr
            return
          </CharString>
          <CharString index="258">
            -8 -4 -4 -7 vhcurveto
            return
          </CharString>
          <CharString index="259">
            hvcurveto
            4 273 callgsubr
            return
          </CharString>
          <CharString index="260">
            7 19 callsubr
            return
          </CharString>
          <CharString index="261">
            rmoveto
            12 -5 4 -11 236 callsubr
            4 5 3 vhcurveto
            43 98 rlineto
            10 24 8 18 29 vvcurveto
            endchar
          </CharString>
          <CharString index="262">
            80 vvcurveto
            162 callgsubr
          </CharString>
          <CharString index="263">
            119 callgsubr
            -30 237 callgsubr
            268 callgsubr
            return
          </CharString>
          <CharString index="264">
            443 callsubr
            -13 vhcurveto
            return
          </CharString>
          <CharString index="265">
            -57 -24 29 54 hvcurveto
            return
          </CharString>
          <CharString index="266">
            -61 callsubr
            109 -81 callgsubr
            return
          </CharString>
          <CharString index="267">
            vlineto
            39 -15 110 callsubr
            return
          </CharString>
          <CharString index="268">
            52 73 17 rmoveto
            151 callgsubr
            246 hlineto
            97 59 57 98 hvcurveto
            333 vlineto
            99 496 callsubr
            -246 515 callsubr
            -541 rmoveto
            452 callsubr
            452 177 callsubr
            141 289 callsubr
            -325 288 callsubr
            return
          </CharString>
          <CharString index="269">
            -12 callsubr
            434 138 407 callsubr
            -566 vlineto
            -84 callsubr
            endchar
          </CharString>
          <CharString index="270">
            11 6 4 13 hvcurveto
            return
          </CharString>
          <CharString index="271">
            331 callsubr
            -51 hlineto
            -13 -6 92 callsubr
            -38 vhcurveto
            -55 hlineto
            -55 -24 395 callsubr
            3 5 8 vhcurveto
            62 -68 callgsubr
            endchar
          </CharString>
          <CharString index="272">
            836 569 callsubr
            -6 hvcurveto
            -52 410 callgsubr
            11 hhcurveto
            48 hlineto
            8 9 4 8 return
          </CharString>
          <CharString index="273">
            -13 5 -4 12 vhcurveto
            63 409 callsubr
            return
          </CharString>
          <CharString index="274">
            13 153 callsubr
            42 251 callsubr
            return
          </CharString>
          <CharString index="275">
            13 240 callgsubr
            return
          </CharString>
          <CharString index="276">
            vhcurveto
            -57 hlineto
            -11 -5 563 callgsubr
            6 -4 7 return
          </CharString>
          <CharString index="277">
            205 callgsubr
            -79 hlineto
            return
          </CharString>
          <CharString index="278">
            vlineto
            166 callsubr
            return
          </CharString>
          <CharString index="279">
            -79 callgsubr
            -53 158 callgsubr
            return
          </CharString>
          <CharString index="280">
            hvcurveto
            42 -11 callgsubr
            return
          </CharString>
          <CharString index="281">
            vlineto
            220 callgsubr
            return
          </CharString>
          <CharString index="282">
            527 201 rmoveto
            -53 -21 -29 -51 vhcurveto
            -7 308 callsubr
            7 hlineto
            51 21 -29 -53 hvcurveto
            -239 -80 rmoveto
            -53 -21 -29 -52 vhcurveto
            -6 hlineto
            -52 -20 29 53 hvcurveto
            80 vlineto
            53 20 29 52 vhcurveto
            6 hlineto
            52 21 -29 -53 hvcurveto
            return
          </CharString>
          <CharString index="283">
            rmoveto
            48 hlineto
            11 5 3 7 5 hvcurveto
            64 107 rlineto
            6 4 -2 319 callsubr
            return
          </CharString>
          <CharString index="284">
            325 callgsubr
            7 vhcurveto
            return
          </CharString>
          <CharString index="285">
            -9 -9 -13 hvcurveto
            return
          </CharString>
          <CharString index="286">
            460 callgsubr
            -6 4 -11 173 callgsubr
            -180 -95 460 callgsubr
            -7 287 callgsubr
          </CharString>
          <CharString index="287">
            148 131 callsubr
            return
          </CharString>
          <CharString index="288">
            108 callsubr
            248 callgsubr
            return
          </CharString>
          <CharString index="289">
            245 callgsubr
            endchar
          </CharString>
          <CharString index="290">
            8 callsubr
            -76 vlineto
            return
          </CharString>
          <CharString index="291">
            hlineto
            81 48 44 78 hvcurveto
            47 vlineto
            77 -48 37 -81 vhcurveto
            -90 hlineto
            -35 -15 8 38 hvcurveto
            8 vlineto
            37 15 9 35 vhcurveto
            145 hlineto
            25 21 12 31 hvcurveto
            105 vlineto
            7 3 5 340 callgsubr
            endchar
          </CharString>
          <CharString index="292">
            vlineto
            172 callgsubr
            return
          </CharString>
          <CharString index="293">
            rlineto
            47 37 25 42 71 vvcurveto
            97 -45 49 -108 -111 -45 -49 -93 -75 39 -44 46 -33 vhcurveto
            -121 -71 rlineto
            -5 -3 -3 -4 -5 vvcurveto
            -4 2 -3 3 -4 vhcurveto
            36 -37 rlineto
            -4 4 5 -2 7 hhcurveto
            3 6 2 2 3 hvcurveto
            137 83 return
          </CharString>
          <CharString index="294">
            123 45 rmoveto
            -12 -6 -5 -13 -29 callgsubr
            5 484 callgsubr
            13 -6 5 -11 vhcurveto
            return
          </CharString>
          <CharString index="295">
            hlineto
            -14 7 -5 12 vhcurveto
            51 hlineto
            13 return
          </CharString>
          <CharString index="296">
            hlineto
            26 20 12 31 hvcurveto
            return
          </CharString>
          <CharString index="297">
            hlineto
            -42 -24 20 49 hvcurveto
            return
          </CharString>
          <CharString index="298">
            -13 303 callgsubr
            return
          </CharString>
          <CharString index="299">
            rmoveto
            -4 -5 -3 -5 -6 435 callsubr
            12 7 4 6 5 hvcurveto
            12 11 117 133 40 51 rrcurveto
            7 8 4 4 8 vvcurveto
            6 -4 4 -5 5 vhcurveto
            -19 17 rlineto
            7 -6 -4 1 -4 hhcurveto
            -7 -4 -4 -7 -7 hvcurveto
            return
          </CharString>
          <CharString index="300">
            rmoveto
            519 callgsubr
            35 157 callsubr
            -199 190 callgsubr
            -35 vlineto
            -12 4 -5 13 vhcurveto
            endchar
          </CharString>
          <CharString index="301">
            -5 623 7 callsubr
            return
          </CharString>
          <CharString index="302">
            -14 vhcurveto
            -22 hlineto
            -54 -28 25 return
          </CharString>
          <CharString index="303">
            6 -6 12 vhcurveto
            return
          </CharString>
          <CharString index="304">
            5 -11 vhcurveto
            -41 hlineto
            -12 27 callgsubr
            411 callgsubr
            return
          </CharString>
          <CharString index="305">
            7 callgsubr
            -63 383 callgsubr
            return
          </CharString>
          <CharString index="306">
            325 callgsubr
            8 vhcurveto
            return
          </CharString>
          <CharString index="307">
            4 8 419 callgsubr
            return
          </CharString>
          <CharString index="308">
            141 callsubr
            -93 60 -49 96 vhcurveto
            348 callgsubr
            return
          </CharString>
          <CharString index="309">
            468 callsubr
            -21 hlineto
            -55 -92 callsubr
            13 6 36 callgsubr
            22 18 44 return
          </CharString>
          <CharString index="310">
            390 callgsubr
            585 vlineto
            14 -6 5 -13 vhcurveto
            -53 hlineto
            -12 -7 -5 -14 hvcurveto
            return
          </CharString>
          <CharString index="311">
            -5 callsubr
            51 hlineto
            13 153 callsubr
            return
          </CharString>
          <CharString index="312">
            73 callsubr
            7 -6 11 vhcurveto
            53 hlineto
            return
          </CharString>
          <CharString index="313">
            rmoveto
            -45 133 callgsubr
            return
          </CharString>
          <CharString index="314">
            13 14 408 callgsubr
            return
          </CharString>
          <CharString index="315">
            57 60 99 1 hvcurveto
            66 vlineto
            101 return
          </CharString>
          <CharString index="316">
            47 vlineto
            77 -48 37 -80 vhcurveto
            -91 hlineto
            -34 -16 8 38 hvcurveto
            8 55 callsubr
          </CharString>
          <CharString index="317">
            vlineto
            51 27 22 48 vhcurveto
            16 hlineto
            13 6 7 12 352 callgsubr
            return
          </CharString>
          <CharString index="318">
            -12 -5 -5 -13 hvcurveto
            -59 vlineto
            -12 5 -7 12 vhcurveto
            63 441 callgsubr
            return
          </CharString>
          <CharString index="319">
            rlineto
            -4 -4 -2 -4 -5 vvcurveto
            -6 426 callsubr
            return
          </CharString>
          <CharString index="320">
            -4 14 17 408 callgsubr
            return
          </CharString>
          <CharString index="321">
            -13 -6 -6 478 callgsubr
            return
          </CharString>
          <CharString index="322">
            147 callgsubr
            -91 -59 return
          </CharString>
          <CharString index="323">
            -108 51 -52 98 vhcurveto
            return
          </CharString>
          <CharString index="324">
            374 callgsubr
            109 330 callsubr
            -314 vlineto
            -14 7 -5 13 vhcurveto
            52 -69 callsubr
            return
          </CharString>
          <CharString index="325">
            -7 -3 4 6 hvcurveto
            96 vlineto
            54 25 23 46 vhcurveto
            20 206 callgsubr
            return
          </CharString>
          <CharString index="326">
            -11 -8 -19 -28 vvcurveto
            return
          </CharString>
          <CharString index="327">
            -3 4 8 hvcurveto
            return
          </CharString>
          <CharString index="328">
            vlineto
            37 20 19 33 573 callsubr
            6 5 13 hvcurveto
            44 140 callgsubr
            -64 hlineto
            -35 -18 18 35 hvcurveto
            40 vlineto
            38 17 17 31 vhcurveto
            19 -75 callsubr
            return
          </CharString>
          <CharString index="329">
            -8 6 9 261 callsubr
            return
          </CharString>
          <CharString index="330">
            272 callgsubr
            47 472 callsubr
            return
          </CharString>
          <CharString index="331">
            11 -6 5 356 callsubr
            -11 hvcurveto
            return
          </CharString>
          <CharString index="332">
            -4 hlineto
            -21 219 callsubr
            return
          </CharString>
          <CharString index="333">
            -25 hlineto
            -45 -32 -17 -25 return
          </CharString>
          <CharString index="334">
            hlineto
            7 4 5 7 vhcurveto
            return
          </CharString>
          <CharString index="335">
            vlineto
            191 callsubr
            return
          </CharString>
          <CharString index="336">
            -44 callsubr
            66 return
          </CharString>
          <CharString index="337">
            -99 362 624 rmoveto
            12 4 -4 7 -13 hhcurveto
            -58 484 callsubr
            -12 -5 hvcurveto
            -45 -115 -135 -376 -45 -116 rrcurveto
            -13 -5 6 -5 13 hhcurveto
            57 549 callsubr
            14 5 hvcurveto
            endchar
          </CharString>
          <CharString index="338">
            -44 266 callgsubr
            return
          </CharString>
          <CharString index="339">
            13 376 callsubr
            return
          </CharString>
          <CharString index="340">
            -101 61 -58 99 vhcurveto
            return
          </CharString>
          <CharString index="341">
            58 hlineto
            54 30 21 27 14 hvcurveto
            4 -117 -5 callsubr
            54 91 callgsubr
            return
          </CharString>
          <CharString index="342">
            40 25 hvcurveto
            1 2 3 264 callsubr
            -21 17 rlineto
            6 -7 -4 1 -4 hhcurveto
            return
          </CharString>
          <CharString index="343">
            169 callsubr
            7 5 return
          </CharString>
          <CharString index="344">
            216 callgsubr
            -57 hvcurveto
            return
          </CharString>
          <CharString index="345">
            186 callgsubr
            11 return
          </CharString>
          <CharString index="346">
            hlineto
            8 3 -5 -8 hvcurveto
            return
          </CharString>
          <CharString index="347">
            227 callgsubr
            49 -104 callgsubr
            -244 hlineto
            399 callgsubr
            return
          </CharString>
          <CharString index="348">
            290 callsubr
            -285 vlineto
            -48 -25 -38 -61 vhcurveto
            -32 -37 callsubr
            -66 callgsubr
            6 -13 vhcurveto
            -55 hlineto
            return
          </CharString>
          <CharString index="349">
            331 callsubr
            -108 hlineto
            -14 -9 -5 -8 -11 hvcurveto
            -118 -93 rlineto
            207 383 callsubr
            337 -104 callgsubr
            endchar
          </CharString>
          <CharString index="350">
            hhcurveto
            -73 hlineto
            428 callsubr
            27 vlineto
            36 19 19 34 vhcurveto
            62 hlineto
            13 6 6 13 hvcurveto
            43 516 callsubr
            -35 562 callsubr
            16 17 32 vhcurveto
            return
          </CharString>
          <CharString index="351">
            hlineto
            -77 571 callsubr
            45 14 vlineto
            88 47 346 callgsubr
            -19 10 vhcurveto
            5 return
          </CharString>
          <CharString index="352">
            301 callsubr
            -14 vhcurveto
            -4 vlineto
            -40 -14 -18 -34 return
          </CharString>
          <CharString index="353">
            -4 -8 vhcurveto
            347 callsubr
            return
          </CharString>
          <CharString index="354">
            158 callsubr
            73 vlineto
            return
          </CharString>
          <CharString index="355">
            vlineto
            -99 55 -54 127 vhcurveto
            return
          </CharString>
          <CharString index="356">
            -74 hlineto
            2 callgsubr
            return
          </CharString>
          <CharString index="357">
            vlineto
            39 -16 110 callsubr
            return
          </CharString>
          <CharString index="358">
            vlineto
            12 394 callsubr
            return
          </CharString>
          <CharString index="359">
            rmoveto
            2 callgsubr
            return
          </CharString>
          <CharString index="360">
            95 callgsubr
            -86 hlineto
            -106 -54 -62 -97 hvcurveto
            -30 vlineto
            -97 54 -64 106 vhcurveto
            80 hlineto
            return
          </CharString>
          <CharString index="361">
            vlineto
            54 28 28 return
          </CharString>
          <CharString index="362">
            278 rmoveto
            -68 -34 -45 -82 vhcurveto
            -44 hlineto
            -77 -35 32 67 hvcurveto
            27 426 callgsubr
            45 108 callgsubr
            return
          </CharString>
          <CharString index="363">
            -13 -10 -7 -18 hvcurveto
            -9 vlineto
            -36 -13 -15 -38 vhcurveto
            -63 hlineto
            -38 -14 15 36 hvcurveto
            9 vlineto
            18 -8 7 -13 vhcurveto
            -38 hlineto
            -16 -7 -9 -18 hvcurveto
            -7 vlineto
            -81 41 -45 78 vhcurveto
            return
          </CharString>
          <CharString index="364">
            -5 623 -6 callsubr
            return
          </CharString>
          <CharString index="365">
            vlineto
            216 callsubr
            28 callgsubr
            return
          </CharString>
          <CharString index="366">
            -12 -6 -5 -13 hvcurveto
            -53 478 callsubr
            55 hlineto
            12 return
          </CharString>
          <CharString index="367">
            6 8 vvcurveto
            4 -2 5 -1 3 vhcurveto
            46 -23 -42 23 -62 hhcurveto
            return
          </CharString>
          <CharString index="368">
            -5 12 252 callgsubr
            82 callgsubr
            return
          </CharString>
          <CharString index="369">
            -50 -14 28 48 48 14 27 50 51 14 -27 -48 return
          </CharString>
          <CharString index="370">
            -6 -5 -12 hvcurveto
            -173 vlineto
            -12 7 -4 7 6 return
          </CharString>
          <CharString index="371">
            357 callgsubr
            6 vhcurveto
            return
          </CharString>
          <CharString index="372">
            vlineto
            341 callgsubr
            return
          </CharString>
          <CharString index="373">
            134 -209 rlineto
            -5 return
          </CharString>
          <CharString index="374">
            7 376 callgsubr
            return
          </CharString>
          <CharString index="375">
            47 420 rmoveto
            -12 6 -4 10 vhcurveto
            57 hlineto
            11 486 callgsubr
            206 vlineto
            12 -6 4 -8 -5 -6 -3 -6 -3 vhcurveto
            -43 -97 rlineto
            -10 -25 -8 -18 -29 vvcurveto
            return
          </CharString>
          <CharString index="376">
            rmoveto
            -68 -35 318 callsubr
            4 -5 -7 hvcurveto
            return
          </CharString>
          <CharString index="377">
            219 callgsubr
            328 callgsubr
            return
          </CharString>
          <CharString index="378">
            -68 callsubr
            -80 95 callgsubr
            return
          </CharString>
          <CharString index="379">
            hlineto
            45 35 36 callsubr
            return
          </CharString>
          <CharString index="380">
            14 17 vvcurveto
            34 return
          </CharString>
          <CharString index="381">
            167 callgsubr
            304 386 callsubr
            return
          </CharString>
          <CharString index="382">
            vlineto
            -12 7 -5 10 9 vhcurveto
            145 122 rlineto
            12 9 4 5 17 vvcurveto
            33 vlineto
            17 -5 5 -11 8 vhcurveto
            -145 122 rlineto
            -10 9 -7 -5 -12 vvcurveto
            return
          </CharString>
          <CharString index="383">
            7 callsubr
            314 177 callgsubr
            return
          </CharString>
          <CharString index="384">
            101 callgsubr
            8 6 4 3 6 4 243 callgsubr
          </CharString>
          <CharString index="385">
            295 callsubr
            -103 return
          </CharString>
          <CharString index="386">
            -4 vlineto
            306 callsubr
            return
          </CharString>
          <CharString index="387">
            hlineto
            -13 -6 -5 -12 309 callgsubr
            -56 hvcurveto
            return
          </CharString>
          <CharString index="388">
            -74 callgsubr
            endchar
          </CharString>
          <CharString index="389">
            363 callsubr
            endchar
          </CharString>
          <CharString index="390">
            7 10 14 4 17 hhcurveto
            339 callgsubr
            -101 183 callsubr
            -97 64 -53 79 vhcurveto
            22 return
          </CharString>
          <CharString index="391">
            rlineto
            6 12 15 3 17 hhcurveto
            483 callgsubr
            12 hvcurveto
            41 516 callsubr
            -102 183 callsubr
            520 callsubr
            return
          </CharString>
          <CharString index="392">
            -191 255 279 rmoveto
            13 4 6 12 hvcurveto
            44 375 callsubr
            -13 vhcurveto
            -198 hlineto
            -13 -4 -6 -12 hvcurveto
            -44 vlineto
            -12 324 callsubr
            endchar
          </CharString>
          <CharString index="393">
            92 rmoveto
            -73 callgsubr
            return
          </CharString>
          <CharString index="394">
            12 vhcurveto
            49 hlineto
            11 6 return
          </CharString>
          <CharString index="395">
            vlineto
            -49 -22 -25 -50 vhcurveto
            return
          </CharString>
          <CharString index="396">
            hlineto
            364 callsubr
            return
          </CharString>
          <CharString index="397">
            hlineto
            96 callsubr
            return
          </CharString>
          <CharString index="398">
            -12 hvcurveto
            -43 vlineto
            return
          </CharString>
          <CharString index="399">
            vlineto
            53 24 27 return
          </CharString>
          <CharString index="400">
            -48 -26 -27 -50 vhcurveto
            -28 hlineto
            -54 -31 -32 callsubr
            55 vhcurveto
            29 507 callgsubr
            -42 hlineto
            return
          </CharString>
          <CharString index="401">
            rmoveto
            -11 -8 -4 -12 -6 hvcurveto
            -52 574 callsubr
            9 257 callgsubr
          </CharString>
          <CharString index="402">
            7 49 319 callgsubr
            return
          </CharString>
          <CharString index="403">
            -14 -12 -17 callgsubr
            12 -6 14 vhcurveto
            53 290 callsubr
            return
          </CharString>
          <CharString index="404">
            196 634 -196 hlineto
            236 -185 rmoveto
            196 185 -196 hlineto
            return
          </CharString>
          <CharString index="405">
            10 321 callsubr
            return
          </CharString>
          <CharString index="406">
            347 callgsubr
            -48 hlineto
            -13 return
          </CharString>
          <CharString index="407">
            85 rmoveto
            -50 -22 25 49 hvcurveto
            return
          </CharString>
          <CharString index="408">
            vlineto
            -46 17 -28 41 return
          </CharString>
          <CharString index="409">
            8 -59 callgsubr
            return
          </CharString>
          <CharString index="410">
            -14 7 -5 12 vhcurveto
            53 hlineto
            13 6 -10 callgsubr
            3 5 8 vhcurveto
            65 -74 callgsubr
            return
          </CharString>
          <CharString index="411">
            0 -35 -18 -45 -40 vhcurveto
            -54 -46 rlineto
            -4 -3 -1 -4 562 callgsubr
            71 hlineto
            10 9 4 6 6 hvcurveto
            9 8 65 56 26 return
          </CharString>
          <CharString index="412">
            429 786 336 callsubr
            return
          </CharString>
          <CharString index="413">
            20 -12 -24 11 -36 379 callsubr
            -16 -33 20 return
          </CharString>
          <CharString index="414">
            -8 -3 246 callsubr
            return
          </CharString>
          <CharString index="415">
            hlineto
            -51 -21 29 53 hvcurveto
            80 vlineto
            53 21 29 51 vhcurveto
            return
          </CharString>
          <CharString index="416">
            300 callgsubr
            56 -83 return
          </CharString>
          <CharString index="417">
            605 rmoveto
            12 -5 6 -14 vhcurveto
            return
          </CharString>
          <CharString index="418">
            -87 52 -92 131 vhcurveto
            return
          </CharString>
          <CharString index="419">
            292 callsubr
            51 vhcurveto
            return
          </CharString>
          <CharString index="420">
            hvcurveto
            -57 274 callgsubr
            return
          </CharString>
          <CharString index="421">
            rmoveto
            12 -6 4 -10 vhcurveto
            return
          </CharString>
          <CharString index="422">
            262 callgsubr
            -200 hlineto
            -13 470 callgsubr
            13 vhcurveto
            endchar
          </CharString>
          <CharString index="423">
            -111 vlineto
            -108 51 -52 98 vhcurveto
            27 callsubr
            return
          </CharString>
          <CharString index="424">
            -4 hlineto
            58 callgsubr
            return
          </CharString>
          <CharString index="425">
            -45 -82 vhcurveto
            -44 hlineto
            -77 571 callsubr
            45 12 vlineto
            89 48 545 callgsubr
            -15 25 -20 301 callgsubr
            return
          </CharString>
          <CharString index="426">
            6 -9 hhcurveto
            -46 hlineto
            -8 -4 -2 -8 -4 323 callgsubr
            return
          </CharString>
          <CharString index="427">
            451 rmoveto
            151 callsubr
            -79 hlineto
            return
          </CharString>
          <CharString index="428">
            6 3 7 5 hvcurveto
            63 107 rlineto
            6 4 return
          </CharString>
          <CharString index="429">
            hlineto
            -102 8 callsubr
            return
          </CharString>
          <CharString index="430">
            13 4 6 11 hvcurveto
            return
          </CharString>
          <CharString index="431">
            4 -6 13 vhcurveto
            return
          </CharString>
          <CharString index="432">
            18 23 18 20 rrcurveto
            4 -104 204 callsubr
            294 239 callgsubr
            27 hlineto
            return
          </CharString>
          <CharString index="433">
            hhcurveto
            5 3 1 6 8 hvcurveto
            27 21 rlineto
            9 6 4 260 callsubr
            -25 hlineto
            return
          </CharString>
          <CharString index="434">
            vhcurveto
            60 -9 callgsubr
          </CharString>
          <CharString index="435">
            -14 7 -5 12 vhcurveto
            51 hlineto
            13 7 -34 callgsubr
            return
          </CharString>
          <CharString index="436">
            278 rmoveto
            -68 -35 -45 return
          </CharString>
          <CharString index="437">
            hlineto
            117 callgsubr
            return
          </CharString>
          <CharString index="438">
            vlineto
            411 callsubr
            return
          </CharString>
          <CharString index="439">
            vlineto
            232 callgsubr
            return
          </CharString>
          <CharString index="440">
            rmoveto
            -18 callsubr
            return
          </CharString>
          <CharString index="441">
            -5 342 callsubr
            return
          </CharString>
          <CharString index="442">
            -4 -6 -11 hvcurveto
            return
          </CharString>
          <CharString index="443">
            198 rmoveto
            100 callgsubr
            62 hlineto
            429 callsubr
            return
          </CharString>
          <CharString index="444">
            13 14 vvcurveto
            34 263 callgsubr
            return
          </CharString>
          <CharString index="445">
            vlineto
            33 -12 23 -24 11 vhcurveto
            4 127 380 callsubr
            return
          </CharString>
          <CharString index="446">
            -4 vlineto
            -32 -14 -28 355 callgsubr
            return
          </CharString>
          <CharString index="447">
            -23 -13 -16 -22 hvcurveto
            return
          </CharString>
          <CharString index="448">
            12 -5 5 -13 vhcurveto
            return
          </CharString>
          <CharString index="449">
            -8 485 callsubr
            return
          </CharString>
          <CharString index="450">
            0 -38 -19 -53 -41 vhcurveto
            -63 -48 rlineto
            -6 -5 -2 -5 -5 288 callgsubr
            80 hlineto
            11 10 5 7 8 hvcurveto
            return
          </CharString>
          <CharString index="451">
            rmoveto
            565 callsubr
            -39 494 callsubr
            39 442 callgsubr
            return
          </CharString>
          <CharString index="452">
            342 callgsubr
            65 hlineto
            11 487 callgsubr
            91 543 callgsubr
            -65 hlineto
            -11 -5 -4 -12 hvcurveto
            endchar
          </CharString>
          <CharString index="453">
            -96 rlineto
            -12 -6 4 -5 10 hhcurveto
            return
          </CharString>
          <CharString index="454">
            -159 hlineto
            -7 -4 4 8 hvcurveto
            return
          </CharString>
          <CharString index="455" raw="1">
            06f7161d b5070b  
          </CharString>
          <CharString index="456">
            hvcurveto
            42 140 callgsubr
            return
          </CharString>
          <CharString index="457">
            -57 callgsubr
            321 112 callgsubr
            -57 572 callgsubr
            -7 vhcurveto
            return
          </CharString>
          <CharString index="458">
            -8 -3 -13 -6 hvcurveto
            -51 346 callsubr
            32 hlineto
            8 394 callgsubr
            74 100 rlineto
            12 8 return
          </CharString>
          <CharString index="459">
            228 -99 callgsubr
            return
          </CharString>
          <CharString index="460">
            -5 11 hhcurveto
            47 hlineto
            9 8 4 8 7 hvcurveto
            84 100 rlineto
            10 return
          </CharString>
          <CharString index="461">
            -34 21 62 hvcurveto
            10 hlineto
            80 64 31 98 89 return
          </CharString>
          <CharString index="462">
            6 5 13 hvcurveto
            44 vlineto
            12 -6 6 return
          </CharString>
          <CharString index="463">
            -10 vhcurveto
            -68 hlineto
            -12 -5 -5 return
          </CharString>
          <CharString index="464">
            572 callgsubr
            -8 vhcurveto
            return
          </CharString>
          <CharString index="465">
            486 callsubr
            -11 vhcurveto
            return
          </CharString>
          <CharString index="466">
            hlineto
            116 callgsubr
            return
          </CharString>
          <CharString index="467">
            hlineto
            14 455 callgsubr
            return
          </CharString>
          <CharString index="468">
            vlineto
            12 -6 6 -12 vhcurveto
            return
          </CharString>
          <CharString index="469">
            -34 callgsubr
            39 vlineto
            13 return
          </CharString>
          <CharString index="470">
            21 5 18 21 vvcurveto
            return
          </CharString>
          <CharString index="471">
            50 22 -25 -49 hvcurveto
            return
          </CharString>
          <CharString index="472" raw="1">
            f7ae0692 8f0b  
          </CharString>
          <CharString index="473">
            -19 -16 -50 vhcurveto
            return
          </CharString>
          <CharString index="474">
            105 225 383 rmoveto
            -38 24 -21 26 46 vvcurveto
            51 20 16 43 43 20 -16 -51 -39 -11 -32 -46 -31 vhcurveto
            return
          </CharString>
          <CharString index="475">
            -7 -4 -5 -7 return
          </CharString>
          <CharString index="476">
            135 callgsubr
            -297 hlineto
            -13 -6 123 callgsubr
            return
          </CharString>
          <CharString index="477">
            rmoveto
            -51 -21 559 callsubr
            21 25 51 vhcurveto
            return
          </CharString>
          <CharString index="478">
            hlineto
            -98 -58 557 callgsubr
            58 -57 98 vhcurveto
            return
          </CharString>
          <CharString index="479">
            -1 -7 -1 -7 vhcurveto
            return
          </CharString>
          <CharString index="480">
            49 550 callsubr
            return
          </CharString>
          <CharString index="481">
            hvcurveto
            -18 vlineto
            -14 6 return
          </CharString>
          <CharString index="482">
            vlineto
            12 -4 6 return
          </CharString>
          <CharString index="483">
            hvcurveto
            42 vlineto
            13 return
          </CharString>
          <CharString index="484">
            rmoveto
            -77 571 callsubr
            45 11 vlineto
            90 2 48 38 87 vvcurveto
            21 vlineto
            39 -16 25 -19 10 vhcurveto
            5 return
          </CharString>
          <CharString index="485">
            vvcurveto
            -94 vlineto
            -104 59 -55 100 vhcurveto
            35 hlineto
            130 callgsubr
            44 vlineto
            12 -6 6 -13 vhcurveto
            -22 hlineto
            return
          </CharString>
          <CharString index="486">
            hhcurveto
            -57 -29 397 callsubr
            -4 hlineto
            41 return
          </CharString>
          <CharString index="487">
            vlineto
            96 callsubr
            return
          </CharString>
          <CharString index="488">
            -4 hlineto
            549 callgsubr
            return
          </CharString>
          <CharString index="489">
            vlineto
            50 21 23 51 vhcurveto
            return
          </CharString>
          <CharString index="490">
            vlineto
            452 callgsubr
            return
          </CharString>
          <CharString index="491">
            20 -11 -24 11 -37 hhcurveto
            return
          </CharString>
          <CharString index="492">
            274 callgsubr
            -62 vhcurveto
            return
          </CharString>
          <CharString index="493">
            160 callgsubr
            -101 -59 -59 -100 hvcurveto
            -86 vlineto
            return
          </CharString>
          <CharString index="494">
            331 callgsubr
            35 hhcurveto
            39 hlineto
            81 48 45 78 hvcurveto
            42 vlineto
            15 -4 11 -6 9 vhcurveto
            return
          </CharString>
          <CharString index="495">
            hlineto
            14 6 6 12 hvcurveto
            44 523 callsubr
            -14 vhcurveto
            return
          </CharString>
          <CharString index="496">
            516 callgsubr
            -49 570 callsubr
            return
          </CharString>
          <CharString index="497">
            rmoveto
            565 callgsubr
            -17 hlineto
            return
          </CharString>
          <CharString index="498">
            107 rlineto
            6 4 -2 6 -8 hhcurveto
            return
          </CharString>
          <CharString index="499">
            rlineto
            -3 -4 -2 -3 -4 vvcurveto
            return
          </CharString>
          <CharString index="500">
            13 497 callsubr
            return
          </CharString>
          <CharString index="501">
            -7 6 -13 vhcurveto
            return
          </CharString>
          <CharString index="502">
            22 54 hvcurveto
            73 433 callgsubr
            return
          </CharString>
          <CharString index="503">
            109 callsubr
            7 return
          </CharString>
          <CharString index="504">
            -25 -35 -12 hvcurveto
            return
          </CharString>
          <CharString index="505">
            -6 13 vhcurveto
            49 hlineto
            12 7 36 callgsubr
            22 18 43 45 419 callsubr
            return
          </CharString>
          <CharString index="506">
            -5 414 callsubr
            return
          </CharString>
          <CharString index="507">
            hvcurveto
            -45 -115 -159 -376 -45 -116 rrcurveto
            -14 -5 5 -4 12 hhcurveto
            39 hlineto
            12 return
          </CharString>
          <CharString index="508">
            -38 hvcurveto
            -12 vlineto
            -37 -16 -13 -34 vhcurveto
            -86 hlineto
            -47 return
          </CharString>
          <CharString index="509" raw="1">
            55231ff8 6c1d0b  
          </CharString>
          <CharString index="510">
            vlineto
            515 callgsubr
            return
          </CharString>
          <CharString index="511">
            -6 -7 -8 -5 2 -5 3 -5 hvcurveto
            return
          </CharString>
          <CharString index="512">
            vhcurveto
            63 hlineto
            11 7 4 return
          </CharString>
          <CharString index="513">
            585 callsubr
            7 vhcurveto
            return
          </CharString>
          <CharString index="514">
            rmoveto
            340 callsubr
            return
          </CharString>
          <CharString index="515">
            550 callgsubr
            -15 vhcurveto
            return
          </CharString>
          <CharString index="516">
            449 callgsubr
            hvcurveto
            return
          </CharString>
          <CharString index="517">
            -55 -28 29 54 hvcurveto
            return
          </CharString>
          <CharString index="518">
            14 -7 5 -12 vhcurveto
            return
          </CharString>
          <CharString index="519" raw="1">
            1ec90699 0b  
          </CharString>
          <CharString index="520">
            hlineto
            49 21 446 callsubr
            return
          </CharString>
          <CharString index="521">
            2 -8 hhcurveto
            -45 hlineto
            -9 -2 213 callgsubr
            10 hhcurveto
            return
          </CharString>
          <CharString index="522">
            rmoveto
            3 callgsubr
            155 vlineto
            181 -199 rlineto
            -22 -13 -23 -12 -35 hhcurveto
            return
          </CharString>
          <CharString index="523">
            444 callgsubr
            5 6 hvcurveto
            return
          </CharString>
          <CharString index="524">
            rlineto
            -3 -4 -2 -4 -4 vvcurveto
            -7 5 -6 583 callgsubr
            return
          </CharString>
          <CharString index="525">
            hvcurveto
            85 100 rlineto
            10 7 -4 7 -12 hhcurveto
            endchar
          </CharString>
          <CharString index="526">
            21 -18 -56 vhcurveto
            return
          </CharString>
          <CharString index="527">
            hvcurveto
            221 vlineto
            return
          </CharString>
          <CharString index="528">
            hhcurveto
            -8 hlineto
            -102 -56 -57 -105 hvcurveto
            -80 vlineto
            -105 56 -57 102 vhcurveto
            8 hlineto
            53 39 return
          </CharString>
          <CharString index="529">
            -5 callsubr
            53 384 callgsubr
            511 vlineto
            7 4 5 return
          </CharString>
          <CharString index="530">
            19 callsubr
            511 -86 callsubr
            return
          </CharString>
          <CharString index="531">
            vlineto
            -12 7 514 callsubr
            return
          </CharString>
          <CharString index="532">
            25 50 vhcurveto
            119 hlineto
            7 495 callsubr
            return
          </CharString>
          <CharString index="533">
            5 -6 429 callgsubr
            return
          </CharString>
          <CharString index="534">
            hlineto
            14 364 callgsubr
            return
          </CharString>
          <CharString index="535">
            -50 -19 18 52 hvcurveto
            return
          </CharString>
          <CharString index="536">
            53 25 -30 -50 hvcurveto
            return
          </CharString>
          <CharString index="537">
            vlineto
            7 3 3 return
          </CharString>
          <CharString index="538">
            -7 -8 -15 hvcurveto
            return
          </CharString>
          <CharString index="539">
            380 callgsubr
            111 227 callsubr
            return
          </CharString>
          <CharString index="540">
            132 callsubr
            -5 vlineto
            -93 53 -51 100 vhcurveto
            72 hlineto
            return
          </CharString>
          <CharString index="541">
            -20 -60 374 callsubr
            -6 return
          </CharString>
          <CharString index="542">
            288 callgsubr
            62 hlineto
            return
          </CharString>
          <CharString index="543">
            hlineto
            323 callsubr
            return
          </CharString>
          <CharString index="544">
            hlineto
            410 callsubr
            return
          </CharString>
          <CharString index="545">
            hlineto
            -8 431 callgsubr
            return
          </CharString>
          <CharString index="546">
            hlineto
            8 3 -3 -7 hvcurveto
            return
          </CharString>
          <CharString index="547">
            -6 -6 2 8 -1 hvcurveto
            return
          </CharString>
          <CharString index="548">
            hlineto
            522 callsubr
            return
          </CharString>
          <CharString index="549">
            hlineto
            -14 -6 -7 return
          </CharString>
          <CharString index="550">
            vlineto
            11 -4 6 return
          </CharString>
          <CharString index="551">
            hlineto
            17 9 4 17 hvcurveto
            34 vlineto
            13 -7 9 -17 vhcurveto
            -43 hlineto
            -37 -19 return
          </CharString>
          <CharString index="552">
            1 callgsubr
            297 hlineto
            7 4 return
          </CharString>
          <CharString index="553">
            104 callgsubr
            -50 -20 150 callsubr
            return
          </CharString>
          <CharString index="554">
            hlineto
            -54 292 callgsubr
            112 vlineto
            57 return
          </CharString>
          <CharString index="555">
            -54 -28 -29 -54 vhcurveto
            return
          </CharString>
          <CharString index="556">
            -7 220 callsubr
            return
          </CharString>
          <CharString index="557">
            97 548 callsubr
            return
          </CharString>
          <CharString index="558">
            -2 4 -3 5 hvcurveto
            return
          </CharString>
          <CharString index="559">
            -7 -4 3 8 hvcurveto
            return
          </CharString>
          <CharString index="560">
            hlineto
            7 4 -3 return
          </CharString>
          <CharString index="561">
            5 -6 11 vhcurveto
            return
          </CharString>
          <CharString index="562">
            -9 -10 -13 hvcurveto
            return
          </CharString>
          <CharString index="563">
            -287 rmoveto
            -14 callgsubr
            return
          </CharString>
          <CharString index="564">
            -40 rmoveto
            38 24 22 40 hvcurveto
            51 vlineto
            38 -24 22 -38 vhcurveto
            -43 hlineto
            return
          </CharString>
          <CharString index="565">
            154 77 callgsubr
            return
          </CharString>
          <CharString index="566">
            hlineto
            -97 64 420 callgsubr
            52 hlineto
            56 40 522 callgsubr
            return
          </CharString>
          <CharString index="567">
            -42 hlineto
            -101 -59 -59 -100 hvcurveto
            -34 vlineto
            -102 58 -58 101 vhcurveto
            79 hlineto
            return
          </CharString>
          <CharString index="568">
            574 rmoveto
            48 hlineto
            10 7 3 7 5 hvcurveto
            62 107 rlineto
            6 4 return
          </CharString>
          <CharString index="569">
            hlineto
            51 22 -25 -49 hvcurveto
            -325 vlineto
            -49 -22 -25 -51 vhcurveto
            endchar
          </CharString>
          <CharString index="570">
            395 rmoveto
            530 callgsubr
            return
          </CharString>
          <CharString index="571">
            -73 callgsubr
            86 -4 hlineto
            return
          </CharString>
          <CharString index="572">
            623 rmoveto
            -66 callsubr
            return
          </CharString>
          <CharString index="573">
            139 rmoveto
            224 callsubr
            return
          </CharString>
          <CharString index="574">
            rmoveto
            528 callsubr
            423 return
          </CharString>
          <CharString index="575">
            hhcurveto
            -24 callsubr
            12 -6 6 -14 vhcurveto
            return
          </CharString>
          <CharString index="576">
            hlineto
            9 callgsubr
            6 -13 vhcurveto
            endchar
          </CharString>
          <CharString index="577">
            hlineto
            10 560 callgsubr
            return
          </CharString>
          <CharString index="578">
            -7 callsubr
            221 hlineto
            return
          </CharString>
          <CharString index="579">
            hlineto
            10 394 callgsubr
            return
          </CharString>
          <CharString index="580">
            -50 481 callsubr
            return
          </CharString>
          <CharString index="581">
            6 19 callsubr
            19 vlineto
            103 return
          </CharString>
          <CharString index="582">
            15 vhcurveto
            371 hlineto
            15 4 return
          </CharString>
          <CharString index="583">
            -14 vhcurveto
            -47 hlineto
            -11 -7 return
          </CharString>
          <CharString index="584">
            14 vhcurveto
            106 hlineto
            88 51 return
          </CharString>
          <CharString index="585">
            vlineto
            -12 6 -7 12 vhcurveto
            return
          </CharString>
          <CharString index="586">
            vlineto
            -14 6 -6 13 vhcurveto
            return
          </CharString>
          <CharString index="587">
            hlineto
            44 33 -20 -57 hvcurveto
            return
          </CharString>
          <CharString index="588">
            hlineto
            -13 -6 -5 -14 hvcurveto
            return
          </CharString>
          <CharString index="589">
            vlineto
            90 48 40 87 hvcurveto
            return
          </CharString>
          <CharString index="590">
            -39 -22 -17 -30 vhcurveto
            return
          </CharString>
          <CharString index="591">
            hlineto
            -13 -5 -6 return
          </CharString>
          <CharString index="592">
            vhcurveto
            -164 hlineto
            return
          </CharString>
          <CharString index="593">
            vlineto
            15 -7 8 return
          </CharString>
          <CharString index="594">
            vlineto
            -8 -4 -4 return
          </CharString>
          <CharString index="595">
            hlineto
            -11 577 callgsubr
            11 vhcurveto
            return
          </CharString>
          <CharString index="596">
            rmoveto
            -58 -24 34 51 hvcurveto
            170 vlineto
            51 24 34 58 vhcurveto
            return
          </CharString>
          <CharString index="597">
            16 26 14 393 callgsubr
            7 -6 12 vhcurveto
            53 hlineto
            return
          </CharString>
          <CharString index="598">
            -85 hlineto
            -14 7 -4 13 vhcurveto
            52 hlineto
            13 6 4 14 hvcurveto
            return
          </CharString>
          <CharString index="599">
            vlineto
            -7 -4 4 8 hvcurveto
            127 191 callgsubr
            return
          </CharString>
          <CharString index="600">
            hlineto
            -96 -58 -56 -97 hvcurveto
            -336 vlineto
            -97 58 -57 96 vhcurveto
            return
          </CharString>
          <CharString index="601">
            vlineto
            -12 4 -7 475 callsubr
            7 12 hvcurveto
            return
          </CharString>
          <CharString index="602">
            4 -3 -7 hvcurveto
            return
          </CharString>
          <CharString index="603">
            -59 56 -97 vhcurveto
            return
          </CharString>
          <CharString index="604">
            -6 5 -12 vhcurveto
            return
          </CharString>
          <CharString index="605">
            vlineto
            15 -6 5 -14 vhcurveto
            -45 hlineto
            -14 -5 -5 -15 hvcurveto
            return
          </CharString>
          <CharString index="606">
            rmoveto
            60 72 -31 67 hhcurveto
            32 29 6 9 21 hvcurveto
            17 return
          </CharString>
          <CharString index="607">
            rmoveto
            -50 -25 -19 -40 vhcurveto
            -11 190 callsubr
            return
          </CharString>
          <CharString index="608">
            hlineto
            -29 callsubr
            return
          </CharString>
          <CharString index="609">
            hlineto
            37 21 17 38 hvcurveto
            60 vlineto
            36 -21 16 -37 vhcurveto
            return
          </CharString>
          <CharString index="610">
            hlineto
            13 7 7 12 callgsubr
            394 callsubr
            return
          </CharString>
          <CharString index="611">
            hlineto
            568 callgsubr
            44 vlineto
            12 -5 6 -14 vhcurveto
            return
          </CharString>
          <CharString index="612">
            hlineto
            -13 -7 115 callsubr
            395 callgsubr
            return
          </CharString>
          <CharString index="613">
            vlineto
            -16 7 -7 15 vhcurveto
            53 hlineto
            15 7 7 16 hvcurveto
            return
          </CharString>
          <CharString index="614">
            hvcurveto
            -80 126 callsubr
            -61 vlineto
            -91 51 -65 return
          </CharString>
          <CharString index="615">
            9 -6 -27 hvcurveto
            -33 vlineto
            -26 -9 -7 -25 vhcurveto
            -15 hlineto
            return
          </CharString>
          <CharString index="616">
            hlineto
            311 callsubr
            90 hlineto
            56 37 19 34 return
          </CharString>
          <CharString index="617">
            -1 5 525 callgsubr
            13 -4 return
          </CharString>
          <CharString index="618">
            392 callsubr
            -6 return
          </CharString>
          <CharString index="619">
            145 callsubr
            -6 4 return
          </CharString>
          <CharString index="620">
            612 rmoveto
            -38 20 -17 37 vhcurveto
            return
          </CharString>
          <CharString index="621">
            -4 7 6 6 3 6 3 vhcurveto
            return
          </CharString>
          <CharString index="622">
            hlineto
            -16 callgsubr
            108 return
          </CharString>
          <CharString index="623">
            -11 callgsubr
            -62 hlineto
            return
          </CharString>
          <CharString index="624">
            101 vlineto
            49 -14 36 return
          </CharString>
          <CharString index="625">
            -14 -36 vhcurveto
            -42 hlineto
            return
          </CharString>
          <CharString index="626">
            vhcurveto
            146 hlineto
            13 return
          </CharString>
          <CharString index="627">
            -100 61 -59 99 vhcurveto
            return
          </CharString>
          <CharString index="628">
            14 vhcurveto
            38 hlineto
            45 return
          </CharString>
          <CharString index="629">
            13 487 callgsubr
            return
          </CharString>
          <CharString index="630">
            vlineto
            12 -6 7 return
          </CharString>
          <CharString index="631">
            -21 12 24 -9 return
          </CharString>
          <CharString index="632">
            79 39 46 83 hvcurveto
            4 vlineto
            18 -8 9 -15 vhcurveto
            return
          </CharString>
          <CharString index="633">
            372 callgsubr
            7 vlineto
            32 12 14 37 vhcurveto
            return
          </CharString>
          <CharString index="634">
            357 callsubr
            -165 hlineto
            -69 -44 -43 return
          </CharString>
          <CharString index="635">
            214 callsubr
            -6 13 vhcurveto
            return
          </CharString>
          <CharString index="636">
            -5 -22 hvcurveto
            -2 vlineto
            -20 -10 -7 -38 vhcurveto
            -28 hlineto
            return
          </CharString>
          <CharString index="637">
            hlineto
            552 callgsubr
            return
          </CharString>
          <CharString index="638">
            -7 3 -3 7 vhcurveto
            29 hlineto
            6 3 3 7 hvcurveto
            return
          </CharString>
          <CharString index="639">
            -7 12 vhcurveto
            63 441 callgsubr
            endchar
          </CharString>
          <CharString index="640">
            3 -8 vhcurveto
            -38 hlineto
            -7 -5 -3 -9 hvcurveto
            endchar
          </CharString>
          <CharString index="641">
            315 callgsubr
            endchar
          </CharString>
          <CharString index="642">
            vlineto
            -100 57 -56 100 vhcurveto
            return
          </CharString>
          <CharString index="643">
            hlineto
            -12 386 callgsubr
            return
          </CharString>
          <CharString index="644">
            hlineto
            567 callsubr
            return
          </CharString>
          <CharString index="645">
            12 vhcurveto
            63 hlineto
            12 5 return
          </CharString>
          <CharString index="646">
            411 callgsubr
            6 return
          </CharString>
          <CharString index="647">
            rmoveto
            96 callsubr
            return
          </CharString>
          <CharString index="648">
            4 -11 hhcurveto
            -78 hlineto
            -11 return
          </CharString>
          <CharString index="649">
            25 11 21 12 hvcurveto
            4 return
          </CharString>
          <CharString index="650">
            hlineto
            450 callsubr
            return
          </CharString>
          <CharString index="651">
            vlineto
            -12 6 -7 13 vhcurveto
            return
          </CharString>
          <CharString index="652">
            429 callgsubr
            9 return
          </CharString>
          <CharString index="653">
            -3 -12 hvcurveto
            -17 vlineto
            -12 return
          </CharString>
          <CharString index="654">
            149 hlineto
            13 return
          </CharString>
          <CharString index="655">
            58 57 98 hvcurveto
            return
          </CharString>
          <CharString index="656">
            hlineto
            12 6 4 return
          </CharString>
          <CharString index="657">
            20 -22 -46 hvcurveto
            return
          </CharString>
          <CharString index="658">
            6 hvcurveto
            -4 14 return
          </CharString>
          <CharString index="659">
            5 -8 -35 hvcurveto
            -19 vlineto
            -9 2 -3 8 vhcurveto
            return
          </CharString>
          <CharString index="660">
            3 -4 2 -4 rrcurveto
            -8 7 8 -5 12 hhcurveto
            return
          </CharString>
          <CharString index="661">
            -503 -62 623 rmoveto
            449 callsubr
            return
          </CharString>
          <CharString index="662">
            hlineto
            453 callgsubr
            463 61 rmoveto
            -23 return
          </CharString>
          <CharString index="663">
            -5 -11 hvcurveto
            -121 vlineto
            -11 return
          </CharString>
          <CharString index="664">
            -84 hlineto
            -14 6 -5 13 vhcurveto
            return
          </CharString>
          <CharString index="665">
            hvcurveto
            109 vlineto
            -4 callsubr
            return
          </CharString>
          <CharString index="666">
            25 49 hvcurveto
            325 vlineto
            49 return
          </CharString>
          <CharString index="667">
            7 vhcurveto
            16 30 27 46 hhcurveto
            return
          </CharString>
          <CharString index="668">
            vlineto
            10 1 9 2 9 vhcurveto
            return
          </CharString>
          <CharString index="669">
            412 callgsubr
            43 vlineto
            38 return
          </CharString>
          <CharString index="670">
            134 rlineto
            -127 vlineto
            -14 return
          </CharString>
          <CharString index="671">
            125 vhcurveto
            36 hlineto
            return
          </CharString>
          <CharString index="672">
            -15 -4 -6 -13 hvcurveto
            return
          </CharString>
          <CharString index="673">
            -74 -1 vhcurveto
            -74 hlineto
            return
          </CharString>
          <CharString index="674">
            -57 -24 29 53 hvcurveto
            return
          </CharString>
          <CharString index="675">
            13 -7 5 -11 vhcurveto
            return
          </CharString>
          <CharString index="676">
            rmoveto
            -11 -9 -4 -12 return
          </CharString>
          <CharString index="677">
            -20 -17 -50 vhcurveto
            return
          </CharString>
          <CharString index="678">
            -35 39 67 hvcurveto
            return
          </CharString>
          <CharString index="679">
            -20 10 vhcurveto
            5 return
          </CharString>
          <CharString index="680">
            vhcurveto
            64 hlineto
            13 return
          </CharString>
          <CharString index="681">
            391 callgsubr
            48 hlineto
            return
          </CharString>
          <CharString index="682">
            vhcurveto
            62 -2 callsubr
            43 vlineto
            return
          </CharString>
          <CharString index="683">
            hvcurveto
            2 2 3 333 callgsubr
            return
          </CharString>
          <CharString index="684">
            -78 -40 78 rlineto
            8 -4 -4 2 -8 hhcurveto
            return
          </CharString>
          <CharString index="685">
            5 11 hvcurveto
            97 vlineto
            12 -6 4 -10 vhcurveto
            return
          </CharString>
          <CharString index="686">
            hhcurveto
            34 54 12 25 14 -5 3 -19 hvcurveto
            return
          </CharString>
          <CharString index="687">
            25 26 -18 19 -26 -25 -19 -19 -26 vhcurveto
            return
          </CharString>
          <CharString index="688">
            225 callsubr
            -39 vlineto
            return
          </CharString>
          <CharString index="689">
            -36 callgsubr
            -216 vlineto
            return
          </CharString>
          <CharString index="690">
            100 rlineto
            10 8 -5 587 callsubr
          </CharString>
          <CharString index="691">
            59 -112 vhcurveto
            endchar
          </CharString>
          <CharString index="692">
            vlineto
            8 4 4 return
          </CharString>
          <CharString index="693">
            -126 vlineto
            -44 return
          </CharString>
          <CharString index="694">
            7 -11 hhcurveto
            endchar
          </CharString>
        <CharString name=".notdef">
          251 166 hmoveto
          422 701 -422 hlineto
          73 -68 rmoveto
          277 -565 -277 hlineto
          endchar
        </CharString>
        <CharString name="A">
          45 -73 callsubr
          endchar
        </CharString>
        <CharString name="AE">
          275 368 548 rmoveto
          4 -314 -160 hlineto
          -126 -234 rmoveto
          11 6 4 13 5 hvcurveto
          66 130 rlineto
          198 -130 hlineto
          151 callgsubr
          320 501 callgsubr
          -228 hlineto
          -8 -3 3 8 hvcurveto
          178 217 callgsubr
          193 441 callsubr
          51 168 callgsubr
          -3 3 7 hvcurveto
          169 217 callgsubr
          228 hlineto
          12 486 callgsubr
          51 289 callgsubr
          -376 hlineto
          -14 -7 -4 -13 -6 hvcurveto
          -301 -608 rlineto
          -11 -5 4 -7 12 hhcurveto
          endchar
        </CharString>
        <CharString name="Aacute">
          44 -73 callsubr
          282 836 rmoveto
          -10 488 callgsubr
          49 hlineto
          8 8 4 8 6 418 callsubr
        </CharString>
        <CharString name="Abreve">
          44 -73 callsubr
          128 824 rmoveto
          -11 vlineto
          230 callgsubr
          -38 hlineto
          -7 -5 -3 -9 hvcurveto
          endchar
        </CharString>
        <CharString name="Acircumflex">
          44 -73 callsubr
          283 826 rmoveto
          7 -5 -5 3 -11 hhcurveto
          -48 297 callgsubr
          5 2 8 2 hvcurveto
          41 78 40 -78 rlineto
          -8 4 4 -2 8 hhcurveto
          46 hlineto
          9 2 6 6 -4 hvcurveto
          endchar
        </CharString>
        <CharString name="Adieresis">
          44 -73 callsubr
          282 724 74 callgsubr
        </CharString>
        <CharString name="Agrave">
          44 -73 callsubr
          215 820 rmoveto
          12 -6 -8 541 callsubr
          -5 -7 -10 8 hvcurveto
          84 586 callgsubr
          8 -4 9 hhcurveto
          48 hlineto
          11 3 5 12 -6 hvcurveto
          endchar
        </CharString>
        <CharString name="Amacron">
          44 -73 callsubr
          337 740 193 callsubr
        </CharString>
        <CharString name="Aogonek">
          44 184 227 rmoveto
          88 320 rlineto
          4 hlineto
          89 -320 rlineto
          -17 399 rmoveto
          13 -3 -8 4 -13 hhcurveto
          -100 hlineto
          -13 -7 -4 -13 -4 hvcurveto
          -174 -609 rlineto
          -12 -3 2 -5 11 hhcurveto
          72 hlineto
          11 4 4 13 3 hvcurveto
          38 130 rlineto
          220 hlineto
          37 -128 -57 -86 rlineto
          -24 -16 9 -25 36 hhcurveto
          35 53 12 25 14 -5 3 -19 hvcurveto
          -40 hlineto
          42 62 rlineto
          52 hlineto
          12 2 5 12 -3 hvcurveto
          endchar
        </CharString>
        <CharString name="Aring">
          44 -73 callsubr
          229 740 rmoveto
          -22 -10 10 24 hvcurveto
          24 vlineto
          25 10 10 23 vhcurveto
          14 hlineto
          23 8 -10 -25 hvcurveto
          -24 vlineto
          -24 -8 -10 -24 vhcurveto
          15 457 callsubr
          -39 -21 -22 -38 hvcurveto
          -51 vlineto
          -40 21 -22 39 vhcurveto
          endchar
        </CharString>
        <CharString name="Atilde">
          44 -73 callsubr
          252 746 rmoveto
          26 16 3 7 12 hhcurveto
          17 4 -8 -35 hvcurveto
          -19 vlineto
          -9 3 -3 7 vhcurveto
          30 hlineto
          7 2 3 9 hvcurveto
          38 vlineto
          45 -14 32 -53 -25 -16 -7 -31 -18 vhcurveto
          -32 -18 -5 -7 -11 hhcurveto
          -15 -5 9 34 hvcurveto
          20 vlineto
          8 -3 2 -7 vhcurveto
          -30 hlineto
          -7 -3 -2 -8 hvcurveto
          -39 vlineto
          -45 15 -32 53 24 17 7 37 20 vhcurveto
          endchar
        </CharString>
        <CharString name="B">
          49 73 17 rmoveto
          151 callgsubr
          246 hlineto
          97 58 55 98 hvcurveto
          64 vlineto
          69 -42 37 -48 6 vhcurveto
          49 15 33 36 61 vvcurveto
          49 vlineto
          98 -58 55 -98 vhcurveto
          -237 515 callsubr
          -257 rmoveto
          -7 548 callgsubr
          171 177 callsubr
          132 hlineto
          49 25 -22 -50 hvcurveto
          -46 vlineto
          -50 -26 -23 -50 vhcurveto
          -130 -286 rmoveto
          -7 548 callgsubr
          186 177 callsubr
          136 hlineto
          54 25 -23 -49 hvcurveto
          -62 vlineto
          -50 -25 -22 -50 vhcurveto
          endchar
        </CharString>
        <CharString name="C">
          37 334 hmoveto
          38 callsubr
        </CharString>
        <CharString name="CR">
          -265 endchar
        </CharString>
        <CharString name="Cacute">
          37 308 165 callsubr
          6 hvcurveto
          84 100 rlineto
          10 8 -5 7 -11 hhcurveto
          -52 -836 rmoveto
          38 callsubr
        </CharString>
        <CharString name="Ccaron">
          37 302 707 rmoveto
          11 495 callgsubr
          -47 hlineto
          -7 -5 -2 -8 -4 hvcurveto
          -40 -78 -40 78 rlineto
          8 -3 399 callsubr
          80 -707 rmoveto
          38 callsubr
        </CharString>
        <CharString name="Ccedilla">
          37 471 422 rmoveto
          12 6 6 12 hvcurveto
          48 vlineto
          99 -58 56 -97 vhcurveto
          -116 hlineto
          -98 -57 557 callgsubr
          57 -57 98 vhcurveto
          44 hlineto
          -40 -46 rlineto
          -20 -18 11 -29 24 hhcurveto
          21 hlineto
          37 11 -6 -22 hvcurveto
          -3 vlineto
          -19 -11 -6 -37 vhcurveto
          -29 hlineto
          -12 -3 -4 -13 hvcurveto
          -16 vlineto
          -11 3 -5 12 vhcurveto
          38 hlineto
          54 36 20 47 hvcurveto
          16 vlineto
          51 -29 18 -47 vhcurveto
          4 vlineto
          42 44 rlineto
          9 543 callsubr
          48 361 callsubr
          -63 hlineto
          -11 -6 -6 -12 hvcurveto
          -44 288 callsubr
          -87 hlineto
          -49 -23 559 callsubr
          23 25 49 vhcurveto
          87 hlineto
          50 22 -25 -49 538 callgsubr
          11 vhcurveto
          endchar
        </CharString>
        <CharString name="D">
          161 callsubr
          endchar
        </CharString>
        <CharString name="Dcaron">
          161 callsubr
          -71 622 rmoveto
          48 329 callgsubr
          -1 6 -9 hhcurveto
          -46 hlineto
          -8 -4 -2 -8 -3 hvcurveto
          -41 577 callsubr
          -45 hlineto
          -9 -3 -6 -6 4 hvcurveto
          64 574 callgsubr
          5 -3 11 hhcurveto
          endchar
        </CharString>
        <CharString name="Dcroat">
          43 346 370 callgsubr
          -247 368 callgsubr
          -13 hvcurveto
          -217 vlineto
          -8 464 callgsubr
          -4 14 vhcurveto
          32 hlineto
          8 2 -3 -7 hvcurveto
          -298 228 callsubr
          92 85 rmoveto
          452 callsubr
          219 177 callsubr
          103 hlineto
          13 455 callgsubr
          40 vlineto
          12 -5 5 -12 vhcurveto
          -103 hlineto
          452 callsubr
          139 379 callgsubr
        </CharString>
        <CharString name="E">
          -23 -76 callgsubr
          endchar
        </CharString>
        <CharString name="Eacute">
          -23 -76 callgsubr
          193 836 rmoveto
          -10 -9 -4 -12 -6 hvcurveto
          -51 -96 rlineto
          -12 -6 3 353 callsubr
          7 -4 587 callsubr
        </CharString>
        <CharString name="Ecaron">
          -23 -76 callgsubr
          140 707 176 callsubr
          -3 -4 414 callsubr
          endchar
        </CharString>
        <CharString name="Ecircumflex">
          -23 -76 callgsubr
          204 826 94 callgsubr
        </CharString>
        <CharString name="Edieresis">
          -23 -76 callgsubr
          203 724 179 callgsubr
        </CharString>
        <CharString name="Edotaccent">
          -16 -76 callgsubr
          111 727 rmoveto
          -12 5 -5 11 vhcurveto
          66 hlineto
          11 486 callgsubr
          96 vlineto
          12 -6 4 -10 vhcurveto
          -66 534 callsubr
        </CharString>
        <CharString name="Egrave">
          -23 -76 callgsubr
          142 820 107 callsubr
        </CharString>
        <CharString name="Emacron">
          -23 -76 callgsubr
          259 740 rmoveto
          519 callgsubr
          35 157 callsubr
          -200 hlineto
          -12 335 callsubr
          -35 vlineto
          -12 4 -5 12 vhcurveto
          endchar
        </CharString>
        <CharString name="Eogonek">
          -23 410 558 rmoveto
          12 4 5 12 hvcurveto
          51 443 callsubr
          -12 vhcurveto
          -320 77 callsubr
          225 hlineto
          -45 -67 rlineto
          -24 -17 9 -25 36 hhcurveto
          35 53 12 25 14 -5 3 -18 hvcurveto
          -41 hlineto
          43 62 rlineto
          45 hlineto
          12 4 6 11 hvcurveto
          51 vlineto
          12 -4 5 -12 vhcurveto
          -228 hlineto
          -8 -4 3 8 hvcurveto
          178 199 callsubr
          193 441 callsubr
          51 168 callgsubr
          -4 3 7 hvcurveto
          169 199 callsubr
          endchar
        </CharString>
        <CharString name="Eth">
          43 346 370 callgsubr
          -247 368 callgsubr
          -13 hvcurveto
          -256 vlineto
          -7 464 callgsubr
          -5 14 vhcurveto
          32 hlineto
          8 2 -3 -7 hvcurveto
          -259 228 callsubr
          92 85 rmoveto
          452 callsubr
          180 177 callsubr
          103 hlineto
          519 callgsubr
          40 vlineto
          12 -5 5 -12 vhcurveto
          -103 hlineto
          -7 548 callgsubr
          178 379 callgsubr
        </CharString>
        <CharString name="Euro">
          35 318 hmoveto
          97 59 55 98 hvcurveto
          23 78 callsubr
          -21 vlineto
          -50 -23 -22 -50 vhcurveto
          -35 hlineto
          -51 -24 22 50 hvcurveto
          66 117 vlineto
          15 4 7 12 hvcurveto
          31 442 callgsubr
          -117 58 117 hlineto
          15 4 -44 callsubr
          30 442 callgsubr
          -117 72 hlineto
          50 24 22 51 vhcurveto
          35 hlineto
          50 23 -22 -50 hvcurveto
          -21 vlineto
          80 callsubr
          23 vlineto
          98 -59 55 -97 vhcurveto
          -65 hlineto
          -97 -59 -55 -98 hvcurveto
          -74 -50 vlineto
          565 callsubr
          -30 vlineto
          -13 4 -6 15 vhcurveto
          50 -58 -50 hlineto
          565 callsubr
          -31 vlineto
          -12 4 -7 15 vhcurveto
          50 -68 hlineto
          -98 59 -55 97 vhcurveto
          endchar
        </CharString>
        <CharString name="F">
          -49 153 228 callgsubr
          236 199 callsubr
          193 hlineto
          13 5 6 12 hvcurveto
          50 168 callgsubr
          -4 3 8 hvcurveto
          189 199 callsubr
          222 hlineto
          519 callgsubr
          51 157 callsubr
          -314 77 callsubr
          endchar
        </CharString>
        <CharString name="G">
          12 callsubr
          endchar
        </CharString>
        <CharString name="Gbreve">
          12 callsubr
          -56 824 rmoveto
          -11 vlineto
          -71 36 -35 61 vhcurveto
          25 hlineto
          62 35 198 callgsubr
          -12 -16 -33 vhcurveto
          -7 hlineto
          -31 -12 15 41 hvcurveto
          10 vlineto
          9 -5 533 callsubr
        </CharString>
        <CharString name="H">
          71 153 228 callgsubr
          253 199 callsubr
          211 hlineto
          7 3 -3 -7 hvcurveto
          -253 vlineto
          80 callsubr
          609 78 callsubr
          -250 vlineto
          -7 -3 -3 -7 vhcurveto
          -211 482 callgsubr
          250 110 callgsubr
          endchar
        </CharString>
        <CharString name="I">
          -250 175 626 46 callsubr
          endchar
        </CharString>
        <CharString name="Iacute">
          -250 175 626 46 callsubr
          -4 819 rmoveto
          -11 -8 -4 -12 -7 hvcurveto
          -51 574 callsubr
          8 9 4 8 6 hvcurveto
          84 583 callsubr
        </CharString>
        <CharString name="Icircumflex">
          -251 175 626 46 callsubr
          -4 809 rmoveto
          7 -5 -6 3 -10 hhcurveto
          -48 hlineto
          -11 -6 -3 -7 -5 hvcurveto
          -63 -107 rlineto
          -6 -4 3 -6 9 hhcurveto
          44 hlineto
          9 4 2 8 3 hvcurveto
          40 78 41 -78 rlineto
          -8 4 4 -2 7 hhcurveto
          47 hlineto
          9 1 6 6 -4 hvcurveto
          endchar
        </CharString>
        <CharString name="Idieresis">
          -251 175 626 46 callsubr
          -5 707 179 callsubr
        </CharString>
        <CharString name="Idotaccent">
          -250 78 714 314 callgsubr
          65 hlineto
          11 487 callgsubr
          91 543 callgsubr
          -65 315 callgsubr
          97 -178 46 callsubr
          endchar
        </CharString>
        <CharString name="Igrave">
          -250 175 626 46 callsubr
          -68 803 107 callsubr
        </CharString>
        <CharString name="Imacron">
          -251 175 626 46 callsubr
          51 723 193 callsubr
        </CharString>
        <CharString name="Iogonek">
          -250 158 hmoveto
          12 5 4 13 hvcurveto
          609 110 callgsubr
          6 hlineto
          -45 -67 rlineto
          -24 -16 8 -25 37 579 callsubr
          -41 hlineto
          44 62 rlineto
          endchar
        </CharString>
        <CharString name="J">
          10 365 643 rmoveto
          -12 -6 -4 -13 hvcurveto
          -467 vlineto
          -49 -21 -25 -51 vhcurveto
          -71 hlineto
          -49 -23 25 49 hvcurveto
          86 vlineto
          12 -5 5 -12 vhcurveto
          -63 hlineto
          -12 -6 -5 -12 hvcurveto
          -90 vlineto
          -98 58 -57 98 vhcurveto
          100 543 callsubr
          472 vlineto
          12 -6 4 -11 vhcurveto
          endchar
        </CharString>
        <CharString name="K">
          113 callgsubr
          endchar
        </CharString>
        <CharString name="L">
          56 callsubr
          endchar
        </CharString>
        <CharString name="Lacute">
          56 callsubr
          77 165 callsubr
          5 418 callgsubr
        </CharString>
        <CharString name="Lcaron">
          56 callsubr
          292 627 400 callgsubr
          6 4 5 3 vhcurveto
          43 98 rlineto
          10 24 8 18 29 vvcurveto
          endchar
        </CharString>
        <CharString name="Lslash">
          9 440 hmoveto
          12 4 6 11 hvcurveto
          52 vlineto
          11 -4 7 -12 vhcurveto
          -233 438 callsubr
          276 vlineto
          89 50 rlineto
          11 7 6 7 12 vvcurveto
          52 vlineto
          10 -7 4 -10 -4 vhcurveto
          -89 -50 rlineto
          165 78 callsubr
          -222 vlineto
          -67 -37 rlineto
          -12 -7 -5 -8 -10 vvcurveto
          -51 vlineto
          -10 7 -5 10 5 vhcurveto
          67 38 rlineto
          -302 534 callgsubr
        </CharString>
        <CharString name="M">
          212 360 246 rmoveto
          -5 hlineto
          -137 386 rlineto
          7 -3 -4 4 -9 hhcurveto
          -112 hlineto
          -10 -7 -4 -13 hvcurveto
          -609 vlineto
          -14 7 -3 10 vhcurveto
          61 hlineto
          14 3 4 13 hvcurveto
          506 4 vlineto
          133 -367 rlineto
          -11 4 5 -5 12 hhcurveto
          64 hlineto
          12 6 6 10 4 hvcurveto
          130 366 rlineto
          4 -505 479 callgsubr
          62 hlineto
          163 callsubr
          609 439 callgsubr
          -112 hlineto
          -10 -4 -4 -7 -1 hvcurveto
          endchar
        </CharString>
        <CharString name="N">
          80 152 hmoveto
          -20 callsubr
          endchar
        </CharString>
        <CharString name="NULL">
          -503 endchar
        </CharString>
        <CharString name="Nacute">
          80 152 hmoveto
          -20 callsubr
          246 836 rmoveto
          -11 488 callgsubr
          49 hlineto
          8 9 4 8 5 418 callsubr
        </CharString>
        <CharString name="Ncaron">
          80 274 707 rmoveto
          48 hlineto
          10 495 callgsubr
          -47 hlineto
          -7 -5 -2 -8 -3 hvcurveto
          -41 -78 -40 78 rlineto
          8 -3 -4 2 -9 hhcurveto
          -45 hlineto
          -8 -3 213 callgsubr
          11 hhcurveto
          -122 -707 rmoveto
          -20 callsubr
          endchar
        </CharString>
        <CharString name="Ntilde">
          80 152 hmoveto
          -20 callsubr
          216 746 rmoveto
          26 16 3 7 12 hhcurveto
          16 552 callsubr
          29 hlineto
          7 3 3 9 hvcurveto
          38 vlineto
          45 -14 32 -53 -26 -15 -7 -31 -18 vhcurveto
          -32 -18 -5 -7 -11 hhcurveto
          -16 -4 9 34 hvcurveto
          20 vlineto
          8 -3 2 -8 vhcurveto
          -29 hlineto
          -7 -2 -2 -8 hvcurveto
          -39 vlineto
          -45 14 584 callgsubr
        </CharString>
        <CharString name="O">
          -50 callgsubr
          endchar
        </CharString>
        <CharString name="OE">
          276 239 85 370 callsubr
          118 hlineto
          8 495 callsubr
          -452 vlineto
          -8 -4 -3 -8 vhcurveto
          -289 70 rmoveto
          -98 58 -57 98 vhcurveto
          475 501 callgsubr
          -223 hlineto
          -7 -3 3 8 hvcurveto
          178 430 callsubr
          7 vhcurveto
          189 436 callsubr
          51 vlineto
          12 -4 5 -13 vhcurveto
          -189 hlineto
          363 callgsubr
          169 430 callsubr
          7 vhcurveto
          223 hlineto
          12 486 callgsubr
          51 289 callgsubr
          -475 539 callgsubr
          endchar
        </CharString>
        <CharString name="Oacute">
          -50 callgsubr
          -7 751 569 callsubr
          -5 hvcurveto
          -52 574 callsubr
          9 394 callgsubr
          84 100 rlineto
          10 7 -4 587 callsubr
        </CharString>
        <CharString name="Ocircumflex">
          -50 callgsubr
          5 741 203 callgsubr
        </CharString>
        <CharString name="Odieresis">
          -50 callgsubr
          1 639 66 callgsubr
          -180 -95 66 callgsubr
          endchar
        </CharString>
        <CharString name="Ograve">
          -50 callgsubr
          -62 735 107 callsubr
        </CharString>
        <CharString name="Ohungarumlaut">
          -50 callgsubr
          74 751 rmoveto
          -11 -8 -3 -13 299 callgsubr
          31 hlineto
          9 7 4 8 7 hvcurveto
          74 100 rlineto
          12 8 -5 5 -11 hhcurveto
          -194 hmoveto
          -10 -8 -3 -13 -7 hvcurveto
          -51 346 callsubr
          32 hlineto
          9 7 4 8 6 hvcurveto
          75 100 rlineto
          12 7 -5 5 -11 hhcurveto
          endchar
        </CharString>
        <CharString name="Omacron">
          -50 callgsubr
          57 655 rmoveto
          519 callgsubr
          35 157 callsubr
          -200 hlineto
          -12 -5 -6 -11 hvcurveto
          -35 vlineto
          -12 5 -5 12 vhcurveto
          endchar
        </CharString>
        <CharString name="Oslash">
          69 405 159 rmoveto
          -49 -22 -25 -50 vhcurveto
          -94 hlineto
          -33 -20 11 21 -11 hvcurveto
          230 321 rlineto
          -238 46 rmoveto
          49 22 25 50 vhcurveto
          94 hlineto
          33 21 -11 -21 10 hvcurveto
          -230 -321 rlineto
          334 435 rmoveto
          -10 7 -8 -1 -8 -11 -19 -27 rcurveline
          23 -27 -36 12 -46 hhcurveto
          -122 hlineto
          -98 -57 536 callgsubr
          -26 4 -23 8 -20 vhcurveto
          -32 -45 -7 -11 2 -8 9 -7 rlinecurve
          17 -13 10 -6 8 1 8 10 rlinecurve
          20 28 rlineto
          -23 26 37 -12 45 hhcurveto
          122 hlineto
          98 57 57 98 hvcurveto
          333 vlineto
          26 -4 23 -8 20 vhcurveto
          33 46 6 10 -1 8 -10 7 rlinecurve
          endchar
        </CharString>
        <CharString name="Otilde">
          -50 callgsubr
          -29 661 rmoveto
          26 16 3 7 13 hhcurveto
          15 552 callsubr
          30 hlineto
          7 2 3 9 hvcurveto
          38 vlineto
          45 -15 32 -52 -26 -15 -7 -31 -17 vhcurveto
          -32 -19 -5 -7 -11 hhcurveto
          -16 -4 9 34 hvcurveto
          20 vlineto
          8 -3 2 -7 vhcurveto
          -30 hlineto
          -7 -3 -2 -8 hvcurveto
          -39 vlineto
          -45 15 584 callgsubr
        </CharString>
        <CharString name="P">
          25 181 315 rmoveto
          -7 548 callgsubr
          223 177 callsubr
          133 hlineto
          50 21 -25 -49 hvcurveto
          -95 vlineto
          -50 -21 -24 -50 vhcurveto
          -161 -315 rmoveto
          116 callgsubr
          202 199 callsubr
          146 543 callsubr
          104 vlineto
          99 -58 56 -97 vhcurveto
          -238 77 callsubr
          endchar
        </CharString>
        <CharString name="Q">
          61 426 -133 rmoveto
          11 8 8 13 -7 hvcurveto
          -67 115 rlineto
          78 10 46 55 87 vvcurveto
          333 vlineto
          99 -57 56 -98 vhcurveto
          -116 371 callsubr
          46 hlineto
          68 -116 rlineto
          -12 7 7 -5 18 hhcurveto
          -131 218 370 callsubr
          87 462 callgsubr
        </CharString>
        <CharString name="R">
          39 181 -46 callsubr
          endchar
        </CharString>
        <CharString name="Racute">
          39 181 -46 callsubr
          205 165 callsubr
          5 418 callgsubr
        </CharString>
        <CharString name="Rcaron">
          39 181 -46 callsubr
          145 707 rmoveto
          49 hlineto
          10 7 3 7 5 hvcurveto
          62 391 callsubr
          -46 154 callgsubr
        </CharString>
        <CharString name="S">
          45 61 156 -30 callgsubr
        </CharString>
        <CharString name="Sacute">
          45 303 165 callsubr
          6 hvcurveto
          84 100 rlineto
          10 8 -5 7 -11 hhcurveto
          -320 -680 -30 callgsubr
        </CharString>
        <CharString name="Scaron">
          45 293 707 rmoveto
          10 495 callgsubr
          -46 hlineto
          -8 -5 -2 -8 -3 hvcurveto
          -40 577 callsubr
          -46 hlineto
          -8 -3 213 callgsubr
          11 hhcurveto
          -184 -551 -30 callgsubr
        </CharString>
        <CharString name="T">
          25 callgsubr
          endchar
        </CharString>
        <CharString name="Tcaron">
          25 callgsubr
          9 707 176 callsubr
          -3 -4 2 -8 hhcurveto
          -45 hlineto
          -9 -3 -6 -6 4 hvcurveto
          64 574 callgsubr
          5 -3 11 hhcurveto
          endchar
        </CharString>
        <CharString name="Thorn">
          0 174 313 callgsubr
          105 217 callgsubr
          95 hlineto
          97 59 56 99 hvcurveto
          68 vlineto
          99 496 callsubr
          -95 438 callsubr
          106 78 callsubr
          -609 228 callsubr
          91 218 rmoveto
          363 callgsubr
          187 430 callsubr
          7 vhcurveto
          81 hlineto
          51 21 -25 -49 hvcurveto
          -60 vlineto
          -50 -21 -23 -51 vhcurveto
          endchar
        </CharString>
        <CharString name="U">
          -51 callgsubr
          endchar
        </CharString>
        <CharString name="Uacute">
          -51 callgsubr
          -153 193 294 callsubr
        </CharString>
        <CharString name="Ucircumflex">
          -51 callgsubr
          -146 183 rmoveto
          7 -5 -6 3 -10 hhcurveto
          -49 297 callgsubr
          4 2 8 4 hvcurveto
          40 78 41 409 callgsubr
          8 hhcurveto
          45 hlineto
          9 2 6 6 -4 hvcurveto
          endchar
        </CharString>
        <CharString name="Udieresis">
          -51 callgsubr
          -149 81 74 callgsubr
        </CharString>
        <CharString name="Ugrave">
          -51 callgsubr
          -209 177 rmoveto
          12 -7 -8 541 callsubr
          -5 -7 -10 8 hvcurveto
          84 586 callgsubr
          9 -4 8 hhcurveto
          48 hlineto
          11 3 5 12 -6 hvcurveto
          endchar
        </CharString>
        <CharString name="Uhungarumlaut">
          -51 callgsubr
          -80 193 rmoveto
          -11 351 callsubr
          -6 5 -10 575 callgsubr
          -51 410 callgsubr
          10 hhcurveto
          32 hlineto
          9 7 4 8 6 533 callgsubr
        </CharString>
        <CharString name="Umacron">
          -51 callgsubr
          -94 97 193 callsubr
        </CharString>
        <CharString name="Uogonek">
          54 409 643 rmoveto
          -16 callgsubr
          -467 vlineto
          -49 -23 -25 -50 vhcurveto
          -82 hlineto
          -49 -23 25 49 hvcurveto
          467 vlineto
          -62 callsubr
          -471 vlineto
          -98 57 -57 98 vhcurveto
          47 hlineto
          -44 -67 rlineto
          -24 -17 9 -25 36 579 callsubr
          -40 hlineto
          43 62 rlineto
          13 hlineto
          97 59 57 98 hvcurveto
          472 vlineto
          12 -6 4 -12 vhcurveto
          endchar
        </CharString>
        <CharString name="Uring">
          -51 callgsubr
          -202 97 rmoveto
          -22 -9 10 24 hvcurveto
          24 vlineto
          25 10 10 22 vhcurveto
          14 hlineto
          23 9 -10 -25 hvcurveto
          -24 vlineto
          -24 -9 -10 -23 vhcurveto
          14 457 callsubr
          -38 -22 -22 -38 hvcurveto
          -51 vlineto
          -40 22 -22 38 vhcurveto
          endchar
        </CharString>
        <CharString name="V">
          10 307 hmoveto
          10 6 4 13 3 hvcurveto
          167 607 rlineto
          12 3 -6 7 -13 hhcurveto
          -70 hlineto
          -12 -5 -4 -13 -3 hvcurveto
          -128 -522 rlineto
          -4 hlineto
          -129 522 rlineto
          13 -2 -5 4 -12 hhcurveto
          -71 hlineto
          -13 -6 -7 -12 4 hvcurveto
          166 -607 rlineto
          -13 3 7 -4 11 hhcurveto
          endchar
        </CharString>
        <CharString name="W">
          299 267 hmoveto
          10 7 5 12 2 hvcurveto
          113 506 rlineto
          4 hlineto
          113 -506 rlineto
          -11 2 6 -6 12 hhcurveto
          106 hlineto
          12 6 5 12 2 hvcurveto
          119 608 rlineto
          12 2 -6 6 -13 hhcurveto
          -77 hlineto
          -11 -8 -5 -13 -1 hvcurveto
          -81 -523 rlineto
          -6 hlineto
          -119 526 rlineto
          12 -2 -8 3 -9 hhcurveto
          -84 hlineto
          -8 -8 -3 -12 -2 hvcurveto
          -118 -526 rlineto
          -6 hlineto
          -81 524 rlineto
          14 -1 -7 3 -12 hhcurveto
          -77 hlineto
          -12 -6 -6 -11 1 hvcurveto
          119 -609 rlineto
          -13 2 7 -4 12 hhcurveto
          endchar
        </CharString>
        <CharString name="X">
          23 388 16 rmoveto
          -12 5 8 -4 10 hhcurveto
          75 hlineto
          12 5 8 11 -6 hvcurveto
          -165 314 160 291 rlineto
          9 4 -5 10 -11 hhcurveto
          -74 hlineto
          -11 -8 -4 -13 -7 hvcurveto
          -115 -232 rlineto
          -4 hlineto
          -115 232 rlineto
          13 -6 -10 4 -12 hhcurveto
          -71 hlineto
          -11 -5 -9 -9 5 hvcurveto
          158 -292 -165 -315 rlineto
          -10 -5 5 -8 11 hhcurveto
          74 hlineto
          11 8 4 12 5 hvcurveto
          123 244 rlineto
          4 hlineto
          endchar
        </CharString>
        <CharString name="Y">
          54 callsubr
          endchar
        </CharString>
        <CharString name="Yacute">
          54 callsubr
          71 836 rmoveto
          -11 -8 -4 -12 -6 hvcurveto
          -51 -96 rlineto
          -12 -7 4 353 callsubr
          7 -5 7 -10 hhcurveto
          endchar
        </CharString>
        <CharString name="Ydieresis">
          54 callsubr
          76 724 74 callgsubr
        </CharString>
        <CharString name="Z">
          5 callsubr
          endchar
        </CharString>
        <CharString name="Zacute">
          5 callsubr
          265 772 294 callsubr
        </CharString>
        <CharString name="Zcaron">
          5 callsubr
          201 643 286 callgsubr
          -1 319 callsubr
          -2 -6 2 -7 hhcurveto
          -45 hlineto
          -10 -1 247 callgsubr
          9 hhcurveto
          endchar
        </CharString>
        <CharString name="Zdotaccent">
          5 callsubr
          181 663 rmoveto
          -12 5 -5 11 vhcurveto
          65 hlineto
          12 486 callgsubr
          96 vlineto
          12 -6 4 -11 vhcurveto
          -65 534 callsubr
        </CharString>
        <CharString name="a">
          9 -55 callgsubr
          endchar
        </CharString>
        <CharString name="aacute">
          9 -55 callgsubr
          101 703 165 callgsubr
        </CharString>
        <CharString name="abreve">
          9 164 680 rmoveto
          -71 36 -35 61 vhcurveto
          26 hlineto
          61 35 35 71 hvcurveto
          11 vlineto
          8 -4 4 -8 vhcurveto
          -37 hlineto
          -7 -5 -4 -8 hvcurveto
          -10 vlineto
          -40 -13 -16 -32 vhcurveto
          -6 hlineto
          -32 -12 15 41 hvcurveto
          10 vlineto
          9 -5 3 -7 vhcurveto
          -38 hlineto
          -8 -5 -3 -9 hvcurveto
          83 -691 4 callgsubr
          -224 -41 callgsubr
          144 514 callgsubr
          -48 hlineto
          78 callgsubr
          119 453 callsubr
          -7 hvcurveto
          endchar
        </CharString>
        <CharString name="acircumflex">
          9 -55 callgsubr
          104 693 94 callgsubr
        </CharString>
        <CharString name="acute">
          -216 139 703 569 callsubr
          299 callgsubr
          47 hlineto
          10 7 4 8 6 418 callgsubr
        </CharString>
        <CharString name="adieresis">
          9 -55 callgsubr
          108 591 66 callgsubr
          -180 -95 66 callgsubr
          endchar
        </CharString>
        <CharString name="ae">
          267 343 164 rmoveto
          -57 -26 -27 -56 vhcurveto
          -41 hlineto
          -55 -23 24 52 hvcurveto
          14 vlineto
          50 22 24 56 vhcurveto
          112 439 callsubr
          292 44 rmoveto
          -8 -4 -3 -7 vhcurveto
          -173 hlineto
          452 callsubr
          75 vlineto
          50 26 22 50 vhcurveto
          46 hlineto
          50 23 -25 -49 hvcurveto
          -195 -162 rmoveto
          6 4 4 8 vhcurveto
          251 hlineto
          12 6 5 13 hvcurveto
          138 vlineto
          99 -58 56 -97 vhcurveto
          -53 hlineto
          -46 -50 -12 -47 -25 hvcurveto
          46 -24 -54 13 -46 hhcurveto
          -157 190 callgsubr
          -51 vlineto
          -12 4 -5 13 vhcurveto
          160 hlineto
          47 25 -22 -51 hvcurveto
          -29 vlineto
          -5 -2 -3 -6 vhcurveto
          -130 hlineto
          -97 -58 -50 -99 hvcurveto
          -16 vlineto
          -96 60 -54 95 vhcurveto
          34 hlineto
          58 53 15 46 25 hvcurveto
          -43 26 38 -18 59 hhcurveto
          205 360 callsubr
          52 334 callgsubr
          -190 hlineto
          -50 -23 25 49 hvcurveto
          endchar
        </CharString>
        <CharString name="agrave">
          9 -55 callgsubr
          58 687 rmoveto
          12 -6 -8 4 -12 hhcurveto
          -78 hlineto
          -11 -5 -7 -10 8 hvcurveto
          84 586 callgsubr
          9 -4 8 hhcurveto
          48 hlineto
          11 4 5 12 -6 hvcurveto
          endchar
        </CharString>
        <CharString name="amacron">
          9 -55 callgsubr
          172 315 callsubr
        </CharString>
        <CharString name="ampersand">
          107 446 12 rmoveto
          -9 7 11 -3 11 hhcurveto
          80 hlineto
          9 1 8 6 -5 hvcurveto
          -179 212 rlineto
          157 hlineto
          519 callgsubr
          51 vlineto
          11 -5 7 -12 vhcurveto
          -229 hlineto
          -53 61 rlineto
          -26 29 -18 30 35 vvcurveto
          21 vlineto
          50 23 22 47 vhcurveto
          12 hlineto
          44 23 -22 -50 hvcurveto
          -37 vlineto
          -12 5 -6 538 callsubr
          6 12 hvcurveto
          39 537 callgsubr
          -30 hlineto
          -97 -64 -55 -98 hvcurveto
          -21 vlineto
          -47 14 -35 27 -35 vhcurveto
          -71 -6 -31 -64 -60 vvcurveto
          -69 vlineto
          -98 58 -55 97 vhcurveto
          69 hlineto
          67 39 22 48 16 hvcurveto
          -177 16 rmoveto
          -51 -24 23 50 hvcurveto
          57 vlineto
          52 18 24 40 2 vhcurveto
          135 -157 rlineto
          -35 -5 -21 -16 -37 hhcurveto
          endchar
        </CharString>
        <CharString name="aogonek">
          9 222 85 rmoveto
          78 callgsubr
          119 453 callsubr
          -7 hvcurveto
          -245 332 callsubr
          -62 425 rmoveto
          -98 -57 -56 -99 hvcurveto
          -200 vlineto
          -98 57 -57 98 vhcurveto
          39 hlineto
          138 callgsubr
          -35 hlineto
          -46 -75 rlineto
          -22 -15 0 -37 33 hhcurveto
          31 51 14 24 2 hvcurveto
          3 11 -6 5 -16 -1 rrcurveto
          -1 -4 -29 -2 -9 hhcurveto
          -3 29 45 21 13 hvcurveto
          46 409 callsubr
          476 vlineto
          13 -6 4 -12 vhcurveto
          endchar
        </CharString>
        <CharString name="apostrophemod">
          -320 136 627 154 callsubr
        </CharString>
        <CharString name="approxequal">
          46 174 388 499 callsubr
          7 350 callgsubr
          -7 -7 -7 -16 vvcurveto
          -44 vlineto
          -8 5 -4 560 callsubr
          -177 vmoveto
          60 72 -31 67 hhcurveto
          32 29 7 8 21 hvcurveto
          17 7 7 8 15 vvcurveto
          44 vlineto
          8 -5 4 -7 vhcurveto
          -15 -30 -27 -47 -70 -64 32 -65 hhcurveto
          -32 -29 -7 -8 -21 hvcurveto
          -17 -8 -7 -7 -16 vvcurveto
          -44 vlineto
          -7 5 -5 560 callsubr
          endchar
        </CharString>
        <CharString name="aring">
          9 184 513 callsubr
          45 hlineto
          36 22 17 38 hvcurveto
          60 vlineto
          36 -22 16 -36 vhcurveto
          -45 hlineto
          -37 -20 -16 -36 hvcurveto
          38 -15 rmoveto
          27 9 6 25 vhcurveto
          16 hlineto
          24 508 callsubr
          -25 -9 7 26 hvcurveto
          25 -624 4 callgsubr
          -224 -41 callgsubr
          144 514 callgsubr
          -48 hlineto
          78 callgsubr
          119 453 callsubr
          -7 hvcurveto
          endchar
        </CharString>
        <CharString name="asciicircum">
          -9 350 380 rmoveto
          -12 6 5 -5 12 hhcurveto
          57 hlineto
          12 7 6 12 -7 hvcurveto
          -124 237 rlineto
          19 -10 -7 6 -20 hhcurveto
          -69 hlineto
          -20 -7 -6 -19 -10 hvcurveto
          -124 -237 rlineto
          -12 -7 7 -6 12 hhcurveto
          57 hlineto
          12 5 5 12 6 hvcurveto
          103 201 rlineto
          endchar
        </CharString>
        <CharString name="asciitilde">
          46 174 300 499 callsubr
          8 350 callgsubr
          -8 -7 -7 -16 vvcurveto
          -43 vlineto
          -8 5 -5 560 callsubr
          endchar
        </CharString>
        <CharString name="asterisk">
          -102 235 627 rmoveto
          566 callgsubr
          -39 368 callgsubr
          -12 hvcurveto
          -11 vlineto
          -63 36 -55 2 -6 vhcurveto
          3 6 31 55 63 vvcurveto
          -141 -213 rmoveto
          -8 -10 3 -8 9 -5 31 -23 rcurveline
          9 -6 8 0 6 8 7 10 rcurveline
          37 51 3 66 2 6 -6 -3 -58 -26 -37 -51 rrcurveto
          -16 153 rmoveto
          -12 5 -6 -5 -3 -9 -12 -38 rcurveline
          -4 -10 3 -7 10 -4 12 -4 rcurveline
          -19 59 64 18 6 hhcurveto
          -4 4 -43 47 -61 20 rrcurveto
          247 -62 rmoveto
          12 3 2 8 -3 10 -12 37 rcurveline
          -4 11 -5 3 -11 -3 -12 -4 rcurveline
          -61 -18 -40 -52 -5 -4 7 -1 62 -13 59 19 rrcurveto
          -76 -134 rmoveto
          7 -10 7 1 9 5 32 23 rcurveline
          9 6 1 8 -7 8 -6 10 rcurveline
          -37 51 -62 23 -5 4 1 -6 5 -65 39 -50 rrcurveto
          endchar
        </CharString>
        <CharString name="at">
          246 452 242 rmoveto
          -51 -24 -33 -58 vhcurveto
          -2 hlineto
          -50 -22 24 49 hvcurveto
          80 vlineto
          50 22 24 50 vhcurveto
          73 hlineto
          8 3 -3 -8 hvcurveto
          48 -432 rmoveto
          323 callsubr
          25 157 callsubr
          -181 hlineto
          -110 -83 71 121 hvcurveto
          159 vlineto
          121 77 71 110 vhcurveto
          190 hlineto
          71 54 -39 -75 hvcurveto
          -207 vlineto
          -54 -27 -26 -51 vhcurveto
          -1 hlineto
          -8 -9 3 8 hvcurveto
          289 265 callsubr
          -162 hlineto
          -85 570 callgsubr
          -72 vlineto
          -98 58 -51 78 38 45 12 42 19 vhcurveto
          4 -11 hlineto
          -30 27 -14 28 vhcurveto
          47 hlineto
          78 56 54 79 hvcurveto
          219 vlineto
          98 -73 70 -106 vhcurveto
          -201 hlineto
          -134 -107 -102 -144 hvcurveto
          -173 vlineto
          -150 114 -92 139 vhcurveto
          endchar
        </CharString>
        <CharString name="atilde">
          10 -55 callgsubr
          -50 652 rmoveto
          -45 14 -32 53 24 18 6 37 20 vhcurveto
          27 15 3 6 12 hhcurveto
          16 5 -8 -35 hvcurveto
          -18 vlineto
          -10 3 -2 7 vhcurveto
          30 hlineto
          7 2 2 10 hvcurveto
          38 vlineto
          45 -14 32 -53 -25 -15 -8 -30 -19 vhcurveto
          -32 -18 -5 -7 -10 hhcurveto
          -16 -6 9 34 hvcurveto
          19 vlineto
          9 -2 2 -7 vhcurveto
          -29 hlineto
          -8 -2 -2 -9 hvcurveto
          endchar
        </CharString>
        <CharString name="b">
          15 63 17 rmoveto
          151 callgsubr
          229 hlineto
          98 548 callsubr
          205 vlineto
          98 -58 56 -98 vhcurveto
          -44 hlineto
          -45 -40 -19 -35 -16 hvcurveto
          -4 226 hlineto
          -62 callsubr
          108 -601 rmoveto
          452 callsubr
          249 vlineto
          50 24 34 58 vhcurveto
          53 hlineto
          50 22 -24 -50 hvcurveto
          -196 288 callsubr
          endchar
        </CharString>
        <CharString name="backslash">
          -99 268 18 rmoveto
          -14 5 6 -4 12 hhcurveto
          57 hlineto
          12 7 5 13 -5 hvcurveto
          -45 116 -135 376 -45 115 rrcurveto
          12 -5 -5 6 -13 hhcurveto
          -59 hlineto
          -12 -5 -6 -13 5 hvcurveto
          endchar
        </CharString>
        <CharString name="bar">
          -281 146 626 rmoveto
          13 -7 4 -11 vhcurveto
          -34 77 callsubr
          34 hlineto
          11 7 4 13 hvcurveto
          endchar
        </CharString>
        <CharString name="braceleft">
          -195 231 643 rmoveto
          -93 -43 -56 -99 hvcurveto
          -113 vlineto
          -46 -18 -16 -31 -14 -4 -6 -11 vhcurveto
          -51 vlineto
          -12 4 -6 14 31 18 -15 -46 vhcurveto
          -113 vlineto
          -99 43 -56 93 vhcurveto
          6 436 callsubr
          37 157 callsubr
          -3 hlineto
          -46 -14 24 50 hvcurveto
          130 vlineto
          52 -18 33 -41 12 vhcurveto
          43 14 16 32 52 vvcurveto
          130 vlineto
          50 14 24 46 vhcurveto
          3 436 callsubr
          37 157 callsubr
          endchar
        </CharString>
        <CharString name="braceright">
          -195 188 488 rmoveto
          99 -44 56 -92 vhcurveto
          -6 505 callgsubr
          3 hlineto
          46 13 -24 -50 hvcurveto
          -130 vlineto
          -52 17 -32 42 -14 vhcurveto
          -41 -12 -18 -33 -52 vvcurveto
          -130 vlineto
          -50 -13 -24 -46 vhcurveto
          -3 505 callgsubr
          6 hlineto
          92 44 56 99 hvcurveto
          113 vlineto
          46 17 15 32 13 4 6 12 vhcurveto
          51 443 callsubr
          -13 -32 -17 16 46 vhcurveto
          endchar
        </CharString>
        <CharString name="bracketleft">
          -194 228 -99 rmoveto
          532 callgsubr
          -65 hlineto
          -7 548 callgsubr
          585 vlineto
          8 4 3 7 vhcurveto
          65 hlineto
          532 callgsubr
          -140 hlineto
          -12 -4 -5 -12 hvcurveto
          -707 vlineto
          -13 4 -5 12 vhcurveto
          endchar
        </CharString>
        <CharString name="bracketright">
          -194 60 -82 rmoveto
          220 callgsubr
          140 hlineto
          12 4 5 13 hvcurveto
          707 vlineto
          12 -4 5 -12 vhcurveto
          -140 hlineto
          -13 470 callgsubr
          13 vhcurveto
          65 453 callsubr
          -8 hvcurveto
          -585 vlineto
          -7 -4 -3 -7 vhcurveto
          -65 190 callgsubr
          endchar
        </CharString>
        <CharString name="breve">
          -167 58 680 rmoveto
          -71 35 -35 62 vhcurveto
          25 hlineto
          62 35 198 callgsubr
          -13 -16 -32 vhcurveto
          -7 hlineto
          -31 -13 15 41 hvcurveto
          10 vlineto
          9 -4 533 callsubr
        </CharString>
        <CharString name="brokenbar">
          -284 145 253 rmoveto
          393 callsubr
          -35 hlineto
          -12 -6 -5 -13 hvcurveto
          -236 vlineto
          -13 6 -4 12 vhcurveto
          35 409 callsubr
          609 vmoveto
          13 -6 4 -12 vhcurveto
          -35 hlineto
          -12 -6 -4 -13 hvcurveto
          -236 vlineto
          -13 6 -4 12 vhcurveto
          35 409 callsubr
          endchar
        </CharString>
        <CharString name="bullet">
          -217 215 362 rmoveto
          33 -20 19 -33 vhcurveto
          -39 hlineto
          -33 -19 -19 -33 hvcurveto
          -84 vlineto
          -34 19 -18 33 vhcurveto
          39 hlineto
          33 20 18 34 hvcurveto
          endchar
        </CharString>
        <CharString name="c">
          64 callgsubr
          endchar
        </CharString>
        <CharString name="cacute">
          64 callgsubr
          -106 687 rmoveto
          -10 -9 -4 -12 -6 hvcurveto
          -51 -96 rlineto
          -12 -7 4 353 callsubr
          7 -4 587 callsubr
        </CharString>
        <CharString name="caron">
          -165 145 574 rmoveto
          47 hlineto
          11 495 callgsubr
          -47 hlineto
          -7 -5 -2 -8 -3 hvcurveto
          -41 -78 -40 78 rlineto
          8 -3 -5 2 -8 hhcurveto
          -45 hlineto
          -8 -3 213 callgsubr
          11 hhcurveto
          endchar
        </CharString>
        <CharString name="ccaron">
          64 callgsubr
          -159 558 286 callgsubr
          -1 6 -10 hhcurveto
          -45 154 callgsubr
        </CharString>
        <CharString name="ccedilla">
          -98 355 425 rmoveto
          13 5 4 12 hvcurveto
          52 551 callgsubr
          -13 vhcurveto
          -147 -41 callgsubr
          21 hlineto
          -35 -41 rlineto
          -19 -17 10 -30 24 hhcurveto
          21 hlineto
          38 10 529 callsubr
          -12 -4 546 callsubr
          3 422 callgsubr
          37 38 rlineto
          63 hlineto
          13 5 4 12 hvcurveto
          52 334 callgsubr
          -133 hlineto
          -49 -23 25 49 hvcurveto
          192 vlineto
          49 23 25 49 vhcurveto
          endchar
        </CharString>
        <CharString name="cedilla">
          -241 67 -41 rmoveto
          -19 -17 11 -30 24 hhcurveto
          20 hlineto
          37 11 529 callsubr
          -13 -2 546 callsubr
          2 422 callgsubr
          57 58 rlineto
          -65 hlineto
          endchar
        </CharString>
        <CharString name="cent">
          -79 281 -93 rmoveto
          10 6 5 11 hvcurveto
          77 71 vlineto
          522 callsubr
          52 vlineto
          11 -5 5 -13 vhcurveto
          -146 hlineto
          -49 -23 25 49 hvcurveto
          192 vlineto
          49 23 25 49 519 callsubr
          5 5 11 hvcurveto
          52 vlineto
          11 -17 6 -12 vhcurveto
          -60 83 hlineto
          11 -6 5 -10 vhcurveto
          -48 hlineto
          -11 -6 -5 -12 hvcurveto
          -82 -17 vlineto
          -92 -54 -59 -96 hvcurveto
          -200 vlineto
          -96 54 -59 92 vhcurveto
          17 -76 hlineto
          -12 6 -5 11 vhcurveto
          endchar
        </CharString>
        <CharString name="circumflex">
          -165 214 693 rmoveto
          7 -5 -6 3 -11 hhcurveto
          -47 hlineto
          -11 -6 -3 -7 -5 hvcurveto
          -63 -107 rlineto
          -6 -4 3 -6 8 hhcurveto
          45 hlineto
          8 5 2 8 3 hvcurveto
          40 78 41 409 callgsubr
          7 hhcurveto
          47 hlineto
          8 2 6 6 -4 hvcurveto
          endchar
        </CharString>
        <CharString name="colon">
          -304 150 139 345 callgsubr
          477 vmoveto
          12 -6 4 356 callsubr
          -12 hvcurveto
          -119 vlineto
          -12 517 callgsubr
          5 12 hvcurveto
          endchar
        </CharString>
        <CharString name="comma">
          296 callgsubr
          -228 424 callsubr
          53 97 rlineto
          12 23 7 16 21 vvcurveto
          endchar
        </CharString>
        <CharString name="copyright">
          208 195 643 rmoveto
          -79 -49 -48 -80 hvcurveto
          -387 vlineto
          -80 49 -48 79 vhcurveto
          321 hlineto
          79 50 48 80 hvcurveto
          387 vlineto
          80 -50 48 -79 vhcurveto
          -303 -583 rmoveto
          -55 -26 24 55 hvcurveto
          365 vlineto
          55 26 24 55 vhcurveto
          285 hlineto
          54 27 -24 -55 hvcurveto
          -365 vlineto
          -55 -27 -24 -54 vhcurveto
          -6 343 rmoveto
          74 -41 35 -73 vhcurveto
          -43 hlineto
          -72 -42 -35 -74 hvcurveto
          -164 vlineto
          -73 42 -36 72 vhcurveto
          43 hlineto
          73 41 36 73 hvcurveto
          27 vlineto
          10 -4 3 -8 vhcurveto
          -41 hlineto
          -8 -4 -3 -10 hvcurveto
          -16 vlineto
          -54 -13 -9 -53 vhcurveto
          -10 hlineto
          -52 -12 9 54 hvcurveto
          143 vlineto
          52 12 9 52 vhcurveto
          10 hlineto
          53 13 -9 -52 hvcurveto
          -15 vlineto
          -9 4 -3 8 vhcurveto
          41 hlineto
          8 4 3 9 hvcurveto
          endchar
        </CharString>
        <CharString name="d">
          15 103 callgsubr
          endchar
        </CharString>
        <CharString name="dagger">
          -88 216 hmoveto
          11 6 4 13 2 hvcurveto
          6 43 14 192 71 vvcurveto
          29 -5 40 175 callgsubr
          119 13 rlineto
          -8 -25 -4 -41 -27 vvcurveto
          -71 14 -192 6 -43 vhcurveto
          -13 1 6 -4 12 hhcurveto
          endchar
        </CharString>
        <CharString name="daggerdbl">
          -88 170 416 rmoveto
          -8 -26 -4 -43 -27 vvcurveto
          -28 4 -42 8 -24 vhcurveto
          -120 12 rlineto
          -13 2 -4 -8 -11 vvcurveto
          -54 vlineto
          -11 4 -6 13 2 vhcurveto
          121 13 -14 -148 rlineto
          -13 -2 8 -4 11 hhcurveto
          195 callgsubr
          -15 149 125 -14 rlineto
          13 -2 5 6 11 vvcurveto
          54 vlineto
          11 -5 8 -13 -2 vhcurveto
          -123 -13 rlineto
          8 24 5 42 29 vvcurveto
          29 -5 43 175 callgsubr
          endchar
        </CharString>
        <CharString name="danda">
          -203 126 19 203 callsubr
          endchar
        </CharString>
        <CharString name="dcaron">
          93 103 callgsubr
          397 687 171 callgsubr
          -206 vlineto
          -12 7 -4 7 5 6 4 5 4 vhcurveto
          42 98 rlineto
          10 24 8 18 29 vvcurveto
          endchar
        </CharString>
        <CharString name="dcroat">
          51 357 514 callgsubr
          -53 hlineto
          -50 -22 25 49 hvcurveto
          134 vlineto
          49 22 24 50 vhcurveto
          53 hlineto
          58 24 -33 -51 hvcurveto
          -104 -282 rmoveto
          45 40 18 35 15 hvcurveto
          4 -36 hlineto
          80 callsubr
          515 177 callsubr
          58 hlineto
          519 callgsubr
          40 289 callgsubr
          -58 hlineto
          452 callsubr
          59 78 callsubr
          -59 vlineto
          -8 -3 -3 -8 vhcurveto
          -142 hlineto
          -12 335 callsubr
          -40 vlineto
          -12 3 -5 13 vhcurveto
          142 439 callsubr
          -134 -4 vlineto
          35 -15 -40 19 -45 hhcurveto
          -45 hlineto
          -98 -57 -57 -98 hvcurveto
          -142 vlineto
          -98 57 -57 98 vhcurveto
          endchar
        </CharString>
        <CharString name="degree">
          -155 180 551 rmoveto
          -13 hlineto
          -21 -5 5 20 hvcurveto
          61 vlineto
          21 5 5 21 vhcurveto
          13 hlineto
          21 5 -5 -21 hvcurveto
          -61 vlineto
          -20 -5 -5 -21 vhcurveto
          21 -41 rmoveto
          30 20 18 31 hvcurveto
          97 vlineto
          30 -20 17 -30 vhcurveto
          -55 hlineto
          -31 -18 -17 -30 hvcurveto
          -97 vlineto
          -31 18 -18 31 vhcurveto
          endchar
        </CharString>
        <CharString name="dieresis">
          -114 238 591 186 callgsubr
          10 6 121 callsubr
          -180 -95 rmoveto
          -11 5 -6 12 vhcurveto
          59 hlineto
          11 560 callgsubr
          -5 4 -11 vhcurveto
          -59 536 callsubr
          endchar
        </CharString>
        <CharString name="divide">
          -22 207 433 rmoveto
          191 callsubr
          34 409 callsubr
          53 vlineto
          393 callsubr
          -34 hlineto
          -11 -6 -5 -13 hvcurveto
          186 -199 rmoveto
          12 4 6 11 hvcurveto
          34 443 callsubr
          -12 vhcurveto
          -303 hlineto
          -14 470 callgsubr
          14 vhcurveto
          117 -132 rmoveto
          191 callsubr
          34 409 callsubr
          54 vlineto
          12 -6 4 -12 vhcurveto
          -34 368 callgsubr
          -12 hvcurveto
          endchar
        </CharString>
        <CharString name="dollar">
          15 288 -98 rmoveto
          116 callgsubr
          81 5 vlineto
          94 60 58 98 hvcurveto
          48 vlineto
          126 -77 30 -79 5 vhcurveto
          -51 2 rlineto
          -63 4 -41 12 55 vvcurveto
          34 vlineto
          63 22 23 58 vhcurveto
          46 hlineto
          58 22 -23 -56 hvcurveto
          -13 vlineto
          -13 6 -5 538 callsubr
          5 13 hvcurveto
          22 vlineto
          96 -56 60 -91 vhcurveto
          -5 82 hlineto
          341 callgsubr
          -46 368 callgsubr
          -13 hvcurveto
          -82 -17 vlineto
          -96 -57 -58 -98 hvcurveto
          -47 vlineto
          -132 79 -25 83 -6 vhcurveto
          45 -2 rlineto
          61 -3 43 -13 -60 vvcurveto
          -32 vlineto
          -59 -24 -24 -56 vhcurveto
          -52 hlineto
          -58 -23 23 56 hvcurveto
          15 vlineto
          13 -5 5 -12 vhcurveto
          -63 hlineto
          -12 -6 -5 -13 hvcurveto
          -23 vlineto
          -97 58 -59 95 vhcurveto
          17 -81 479 callgsubr
          endchar
        </CharString>
        <CharString name="dotaccent">
          -288 58 590 rmoveto
          -11 5 -5 12 vhcurveto
          65 hlineto
          11 5 578 callsubr
          -65 hlineto
          -12 -5 -4 -12 hvcurveto
          endchar
        </CharString>
        <CharString name="dotlessi">
          -264 70 17 rmoveto
          191 callsubr
          65 hlineto
          12 4 3 14 hvcurveto
          476 439 callgsubr
          -64 hlineto
          -16 callgsubr
          endchar
        </CharString>
        <CharString name="dottedcircle">
          157 139 517 rmoveto
          -26 18 -19 26 26 18 19 26 25 -18 19 -26 -26 -18 -19 -25 vhcurveto
          -82 -110 rmoveto
          -25 20 -19 26 24 20 19 25 25 -20 19 -24 -26 -20 -19 -25 vhcurveto
          -13 -126 rmoveto
          -25 19 -18 25 26 18 18 580 callsubr
          52 -116 rmoveto
          -26 18 -18 26 25 19 18 26 25 -19 19 -25 -26 -18 -19 -25 vhcurveto
          101 -75 rmoveto
          -26 19 -20 26 25 19 20 26 24 -19 20 -25 -26 -19 -20 -24 vhcurveto
          127 -16 rmoveto
          -26 18 -18 26 26 19 18 26 26 -19 18 -26 -26 -18 -18 -26 vhcurveto
          121 53 rmoveto
          -26 19 -18 25 25 20 18 26 25 -20 19 -25 -25 -19 -19 -25 vhcurveto
          73 98 rmoveto
          -25 19 -19 26 24 19 19 25 26 -19 19 -24 -26 -19 -19 -26 vhcurveto
          10 134 rmoveto
          -26 18 -18 26 25 19 18 26 26 -19 18 -25 -26 -18 -18 -26 vhcurveto
          -50 118 rmoveto
          -25 19 -19 25 26 18 19 580 callsubr
          -95 68 rmoveto
          -24 19 -20 26 25 18 20 24 26 -18 19 -25 -26 -19 -19 -26 vhcurveto
          -126 15 rmoveto
          -26 18 -18 26 26 18 18 26 26 -18 18 -26 -26 -18 -18 -26 vhcurveto
          endchar
        </CharString>
        <CharString name="doubledanda">
          32 126 19 203 callsubr
          235 -585 203 callsubr
          endchar
        </CharString>
        <CharString name="dvA">
          102 478 623 rmoveto
          -71 callsubr
          65 hlineto
          15 -105 callgsubr
          -15 vhcurveto
          endchar
        </CharString>
        <CharString name="dvAA">
          336 477 623 rmoveto
          -71 callsubr
          122 290 callsubr
          -512 vlineto
          -55 callsubr
          endchar
        </CharString>
        <CharString name="dvAI">
          19 469 623 223 callgsubr
          -61 hlineto
          -10 264 callgsubr
          56 -83 42 -62 36 -44 41 -43 rlinecurve
          -382 hlineto
          -13 68 callgsubr
          -6 13 vhcurveto
          65 440 callgsubr
          -324 vlineto
          -102 66 -76 114 vhcurveto
          163 hlineto
          13 1 6 6 13 vvcurveto
          44 vlineto
          12 -5 7 -14 vhcurveto
          -145 hlineto
          -71 -37 35 63 hvcurveto
          321 -86 callsubr
          192 hlineto
          7 5 -68 callsubr
          -109 vlineto
          -59 -31 -15 -49 vhcurveto
          -25 58 callsubr
          37 hlineto
          98 59 50 104 558 callsubr
          9 vhcurveto
          49 hlineto
          13 6 6 19 callgsubr
          endchar
        </CharString>
        <CharString name="dvAU">
          337 778 623 rmoveto
          449 callsubr
          231 331 callsubr
          -49 hlineto
          -13 -7 -5 -14 hvcurveto
          -28 vlineto
          -69 15 -73 25 -55 vhcurveto
          -4 -1 -135 229 rlineto
          10 -6 -8 6 -20 hhcurveto
          -50 300 callgsubr
          57 -83 38 -55 52 -61 38 -29 rlinecurve
          -4 -193 vlineto
          -71 callsubr
          122 -89 callsubr
          -512 vlineto
          -14 6 373 callgsubr
          12 -106 callsubr
          endchar
        </CharString>
        <CharString name="dvAbbreviationsign">
          -79 382 299 rmoveto
          34 vlineto
          93 -55 53 -93 vhcurveto
          -42 hlineto
          -93 -55 -53 -93 hvcurveto
          -34 vlineto
          -94 55 -53 93 vhcurveto
          42 hlineto
          93 55 53 94 hvcurveto
          -248 3 rmoveto
          28 vlineto
          51 19 23 54 vhcurveto
          12 hlineto
          54 571 callgsubr
          -28 vlineto
          -51 -20 -24 -54 vhcurveto
          -12 hlineto
          -54 -19 24 51 hvcurveto
          endchar
        </CharString>
        <CharString name="dvAcandra">
          102 478 623 rmoveto
          -71 callsubr
          65 hlineto
          15 -105 callgsubr
          -15 vhcurveto
          -15 231 rmoveto
          256 callsubr
          93 hlineto
          525 callsubr
          endchar
        </CharString>
        <CharString name="dvAnusvara">
          -503 -72 802 rmoveto
          568 callsubr
          -63 hlineto
          211 callsubr
          endchar
        </CharString>
        <CharString name="dvAnusvara.amI">
          -503 133 802 337 callgsubr
        </CharString>
        <CharString name="dvAvagraha">
          36 467 201 rmoveto
          89 -39 26 -92 43 vhcurveto
          -89 41 -48 23 55 vvcurveto
          49 19 16 55 vhcurveto
          137 -104 callgsubr
          -154 hlineto
          -113 -36 -41 -105 -90 40 -45 89 -43 hvcurveto
          82 -39 58 -8 -56 vvcurveto
          -37 vlineto
          -48 -17 -28 -57 vhcurveto
          -59 hlineto
          -58 -20 38 30 -28 hvcurveto
          7 -5 -5 4 -7 hhcurveto
          -5 -3 -1 -7 -8 hvcurveto
          -23 -18 499 callgsubr
          -43 28 49 -61 91 hhcurveto
          76 hlineto
          96 54 57 93 hvcurveto
          endchar
        </CharString>
        <CharString name="dvB">
          -228 217 154 rmoveto
          120 callgsubr
          101 121 rmoveto
          -13 -6 -4 -15 hvcurveto
          -19 -21 callgsubr
          91 57 58 109 hvcurveto
          13 vlineto
          13 394 callsubr
          -393 348 -99 callgsubr
          404 -9 callgsubr
        </CharString>
        <CharString name="dvBA">
          8 216 154 45 callsubr
          -267 67 callgsubr
          342 93 callsubr
        </CharString>
        <CharString name="dvBH">
          -232 365 253 rmoveto
          224 callgsubr
          -196 40 callsubr
          195 290 504 callgsubr
          -95 hlineto
          81 callsubr
          endchar
        </CharString>
        <CharString name="dvBHA">
          0 329 253 rmoveto
          117 callgsubr
          -222 vlineto
          -14 6 373 callgsubr
          12 -106 callsubr
          -231 hlineto
          41 callsubr
          -12 330 callgsubr
          -42 vlineto
          -13 6 -6 13 vhcurveto
          12 hlineto
          41 20 -23 -51 128 callsubr
          endchar
        </CharString>
        <CharString name="dvBH_LA">
          425 270 623 rmoveto
          81 callsubr
          486 -12 callgsubr
          -120 -4 vlineto
          20 -11 -24 11 -37 379 callsubr
          147 callgsubr
          -75 -54 -38 -72 -16 hvcurveto
          -162 40 callsubr
          156 -64 hlineto
          -104 58 -55 101 vhcurveto
          -24 callsubr
          12 -6 6 -14 -62 callgsubr
          13 6 -10 callgsubr
          4 5 7 vhcurveto
          66 hlineto
          14 -105 callgsubr
          -14 vhcurveto
          endchar
        </CharString>
        <CharString name="dvBH_NA">
          275 269 -82 callsubr
          337 -12 callgsubr
          -128 vlineto
          -7 -3 334 callsubr
          -50 -37 -22 -36 -17 hvcurveto
          -167 40 callsubr
          158 hlineto
          2 -20 5 -18 9 -15 rrcurveto
          -6 callgsubr
          -278 vlineto
          -55 callsubr
          endchar
        </CharString>
        <CharString name="dvBH_R">
          -233 352 543 rmoveto
          -85 callsubr
          -82 hlineto
          -13 -7 -13 callgsubr
          430 callgsubr
          -101 -196 rmoveto
          83 callgsubr
          150 hlineto
          -227 242 callgsubr
        </CharString>
        <CharString name="dvBH_RA">
          0 276 623 rmoveto
          296 callsubr
          -172 vlineto
          -8 -3 -4 -8 vhcurveto
          -160 hlineto
          83 callgsubr
          159 hlineto
          6 3 -2 -4 1 hvcurveto
          -246 -252 212 callsubr
          9 4 10 9 hvcurveto
          143 154 rlineto
          -133 vlineto
          -14 6 373 callgsubr
          12 -106 callsubr
          endchar
        </CharString>
        <CharString name="dvBH_R_YA">
          357 697 -96 callgsubr
          -417 92 98 callsubr
          -29 -167 vlineto
          83 callgsubr
          166 -8 hlineto
          -243 -250 212 callsubr
          9 4 10 9 hvcurveto
          163 175 rlineto
          -52 30 55 -37 82 hhcurveto
          52 hlineto
          56 40 20 33 18 hvcurveto
          4 -118 hlineto
          -55 callsubr
          endchar
        </CharString>
        <CharString name="dvBH_VA">
          276 270 623 rmoveto
          81 callsubr
          335 290 callsubr
          -285 vlineto
          -88 callgsubr
          -93 -56 -49 -84 -9 hvcurveto
          -158 40 callsubr
          155 -15 hlineto
          233 callsubr
          -92 callgsubr
        </CharString>
        <CharString name="dvBH_YA">
          347 686 -96 callgsubr
          -417 92 98 callsubr
          -43 -156 vlineto
          43 callgsubr
          156 hlineto
          -90 7 63 -79 120 hhcurveto
          52 hlineto
          56 40 20 33 18 hvcurveto
          4 -118 hlineto
          -55 callsubr
          endchar
        </CharString>
        <CharString name="dvB_BA">
          306 514 154 45 callsubr
          -343 hmoveto
          -16 callsubr
          640 16 callgsubr
          -102 183 callsubr
          -13 vlineto
          -1 -8 11 callsubr
          -60 99 vhcurveto
          51 hlineto
          52 41 19 36 25 hvcurveto
          -35 28 44 -19 56 hhcurveto
          -27 callsubr
        </CharString>
        <CharString name="dvB_BHA">
          284 494 callgsubr
          8 2 8 vhcurveto
          175 -172 rlineto
          -6 -12 -15 -4 -17 hhcurveto
          290 469 rmoveto
          -14 -11 -17 callgsubr
          11 -6 14 vhcurveto
          53 290 callsubr
          -158 -4 callgsubr
          -160 hlineto
          449 callsubr
          99 vlineto
          98 -55 53 -97 vhcurveto
          -296 58 callsubr
          296 359 callgsubr
          -240 vlineto
          -8 -1 -8 -2 -7 vhcurveto
          -180 175 rlineto
          8 13 497 callgsubr
          339 callgsubr
          -101 183 callsubr
          520 callsubr
          74 hlineto
          105 51 65 78 4 hvcurveto
          4 578 callgsubr
          -262 hlineto
          -14 7 -5 12 vhcurveto
          53 hlineto
          12 -106 callsubr
          endchar
        </CharString>
        <CharString name="dvB_BH_RA">
          283 434 callgsubr
          183 -173 rlineto
          -10 -12 -17 -6 -24 hhcurveto
          291 469 rmoveto
          -14 -12 -17 callgsubr
          12 -6 14 vhcurveto
          52 290 callsubr
          -158 vlineto
          307 callsubr
          99 vlineto
          98 -55 53 -97 vhcurveto
          -295 58 callsubr
          295 359 callgsubr
          -245 vlineto
          -5 vlineto
          0 vlineto
          -1 -2 -177 167 284 callsubr
          82 hlineto
          110 41 70 76 1 hvcurveto
          1 578 callgsubr
          -33 hlineto
          -238 -244 417 callsubr
          134 144 rlineto
          -118 vlineto
          -44 callgsubr
        </CharString>
        <CharString name="dvB_DA">
          278 217 154 rmoveto
          -16 callsubr
          617 62 callsubr
          -68 -21 callgsubr
          50 39 17 34 26 hvcurveto
          -36 26 42 -20 61 hhcurveto
          -80 callgsubr
          endchar
        </CharString>
        <CharString name="dvB_DHA">
          340 217 159 rmoveto
          567 callsubr
          69 561 callsubr
          176 -167 rlineto
          -8 -12 -17 -4 -21 hhcurveto
          351 464 rmoveto
          13 callgsubr
          19 hlineto
          13 -90 callgsubr
          -13 vhcurveto
          -508 -56 callgsubr
          380 377 callgsubr
          -32 vlineto
          -1 -8 -175 166 rlineto
          7 12 497 callgsubr
          42 hlineto
          13 6 6 12 hvcurveto
          41 -11 callgsubr
          -52 hlineto
          -101 8 callsubr
          -71 vlineto
          -100 61 -60 99 vhcurveto
          47 hlineto
          51 39 15 30 27 hvcurveto
          -33 24 41 -18 54 hhcurveto
          61 callgsubr
          endchar
        </CharString>
        <CharString name="dvB_DH_VA">
          616 434 callgsubr
          181 -171 rlineto
          -11 -14 -17 -7 -27 hhcurveto
          369 469 rmoveto
          -66 callsubr
          315 -22 callsubr
          -70 vlineto
          -14 1 -13 2 -12 vhcurveto
          -20 -17 -20 -21 -44 hhcurveto
          -74 hlineto
          -49 -20 18 52 hvcurveto
          27 vlineto
          36 20 19 34 vhcurveto
          62 hlineto
          13 6 6 13 hvcurveto
          43 516 callsubr
          -36 562 callsubr
          17 17 32 vhcurveto
          16 -54 callsubr
          -515 -56 callgsubr
          389 -4 hlineto
          -20 219 callsubr
          -42 vlineto
          -46 16 -28 41 -15 vhcurveto
          -4 vlineto
          -39 -13 454 callgsubr
          -33 vlineto
          -8 vlineto
          -1 vlineto
          -183 173 284 callsubr
          48 hlineto
          59 41 21 26 28 hvcurveto
          -32 25 40 -17 52 hhcurveto
          93 hlineto
          52 36 21 26 26 hvcurveto
          -28 27 40 -15 51 hhcurveto
          -28 callgsubr
        </CharString>
        <CharString name="dvB_JA">
          394 135 295 rmoveto
          13 2 11 3 10 vhcurveto
          193 -193 rlineto
          -117 537 callsubr
          -140 405 -99 callgsubr
          729 369 callsubr
          6 -6 237 callsubr
          -57 vlineto
          -49 -15 -29 -61 vhcurveto
          -57 hlineto
          -234 233 rlineto
          5 11 15 3 16 hhcurveto
          53 hlineto
          13 229 callgsubr
          46 516 callsubr
          -102 -57 -60 -99 -1 hvcurveto
          -88 vlineto
          233 callsubr
          285 259 callgsubr
          127 332 callgsubr
          -317 vlineto
          -14 6 -5 13 vhcurveto
          52 hlineto
          13 -106 callsubr
          endchar
        </CharString>
        <CharString name="dvB_JHA">
          489 830 291 rmoveto
          -8 -4 -4 -8 vhcurveto
          -333 hlineto
          -34 -15 10 32 hvcurveto
          25 vlineto
          32 12 14 37 vhcurveto
          166 hlineto
          26 20 210 callgsubr
          111 -89 callsubr
          -613 -377 rmoveto
          -16 callsubr
          601 -89 callsubr
          -47 95 callgsubr
          -118 hlineto
          -80 -51 -38 -79 hvcurveto
          -118 -24 callgsubr
          -59 99 vhcurveto
          65 hlineto
          89 54 46 90 9 hvcurveto
          -8 22 26 -4 28 hhcurveto
          86 hlineto
          35 14 -15 -33 hvcurveto
          -68 vlineto
          -36 -15 -14 -37 vhcurveto
          -37 hlineto
          -38 -22 9 40 15 -6 5 -13 hvcurveto
          473 callsubr
          -169 vlineto
          -14 6 -5 13 vhcurveto
          50 hlineto
          13 6 -34 callgsubr
          69 331 callgsubr
          35 hhcurveto
          34 hlineto
          80 48 46 78 hvcurveto
          86 vlineto
          14 -4 12 -7 9 vhcurveto
          104 440 callgsubr
          -169 vlineto
          -84 callsubr
          endchar
        </CharString>
        <CharString name="dvB_J_YA">
          744 1084 278 270 callsubr
          -949 -236 rmoveto
          13 2 11 3 10 vhcurveto
          193 -193 rlineto
          -117 537 callsubr
          -140 405 67 callsubr
          810 7 callgsubr
          -7 hlineto
          27 -15 -26 16 -43 hhcurveto
          -288 hlineto
          -13 -6 123 callgsubr
          6 -6 237 callsubr
          -63 274 callgsubr
          -61 vhcurveto
          -57 hlineto
          -234 233 rlineto
          5 11 15 3 16 hhcurveto
          53 hlineto
          13 229 callgsubr
          46 516 callsubr
          -102 -57 -60 -99 -1 hvcurveto
          -88 vlineto
          233 callsubr
          285 146 callgsubr
          76 vlineto
          33 -13 23 -23 11 vhcurveto
          4 94 vlineto
          27 5 -11 -24 hvcurveto
          -48 vlineto
          -97 64 420 callgsubr
          -22 callgsubr
          6 373 callgsubr
          12 -106 callsubr
          endchar
        </CharString>
        <CharString name="dvB_JxA">
          394 401 -8 rmoveto
          -45 callsubr
          5 226 callgsubr
          -11 vhcurveto
          -321 303 rmoveto
          13 2 11 3 10 vhcurveto
          193 -193 rlineto
          -117 537 callsubr
          -140 405 -99 callgsubr
          729 369 callsubr
          6 -6 237 callsubr
          -57 vlineto
          -49 -15 -29 -61 vhcurveto
          -57 hlineto
          -234 233 rlineto
          5 11 15 3 16 hhcurveto
          53 hlineto
          13 229 callgsubr
          46 516 callsubr
          -102 -57 -60 -99 -1 hvcurveto
          -88 vlineto
          233 callsubr
          285 259 callgsubr
          127 332 callgsubr
          -317 vlineto
          -14 6 -5 13 vhcurveto
          52 hlineto
          13 -106 callsubr
          endchar
        </CharString>
        <CharString name="dvB_LA">
          446 217 154 rmoveto
          -16 callsubr
          782 -12 callgsubr
          -120 -4 vlineto
          384 callsubr
          -56 -30 397 callsubr
          -4 hlineto
          41 215 callsubr
          -55 -105 hvcurveto
          -46 -21 callgsubr
          42 34 12 24 25 hvcurveto
          -54 23 50 -28 72 202 callsubr
          44 419 callsubr
          -265 vlineto
          -44 callgsubr
        </CharString>
        <CharString name="dvB_L_YA">
          491 1149 255 callsubr
          -932 -377 rmoveto
          -16 callsubr
          875 hlineto
          49 21 -22 -46 hvcurveto
          -38 438 callgsubr
          -7 hlineto
          55 -13 -58 33 -71 hhcurveto
          -60 -34 445 callgsubr
          -62 -21 callgsubr
          44 37 14 27 25 hvcurveto
          -47 25 48 -24 67 202 callsubr
          53 14 -34 -34 vhcurveto
          -42 vlineto
          -97 63 -83 128 vhcurveto
          52 hlineto
          57 39 20 33 18 hvcurveto
          4 -118 hlineto
          -93 callsubr
        </CharString>
        <CharString name="dvB_NA">
          335 311 172 rmoveto
          -12 -11 -16 -6 -21 hhcurveto
          -46 hlineto
          247 callsubr
          7 1 14 2 5 vhcurveto
          131 57 rmoveto
          -15 callsubr
          -101 183 callsubr
          -100 61 -60 99 vhcurveto
          63 hlineto
          69 45 25 53 24 hvcurveto
          -240 226 rlineto
          8 12 16 5 20 hhcurveto
          -223 230 -99 callgsubr
          670 -81 callgsubr
          -128 527 callsubr
          -65 428 callgsubr
          hvcurveto
          278 callgsubr
          -3 337 callsubr
          -278 vlineto
          -14 7 -5 12 vhcurveto
          53 hlineto
          12 -106 callsubr
          endchar
        </CharString>
        <CharString name="dvB_R">
          -212 369 245 rmoveto
          -8 -10 -7 -10 -7 -7 -170 164 rcurveline
          283 callsubr
          -4 hlineto
          204 callgsubr
          75 72 17 15 106 112 7 20 rlinecurve
          8 9 6 7 7 vvcurveto
          7 -2 4 -6 5 vhcurveto
          -19 15 -7 6 -3 2 -5 -1 rlinecurve
          -7 -1 -3 -5 -7 -7 rrcurveto
          -233 65 rmoveto
          12 1 11 3 10 vhcurveto
          175 -167 rlineto
          -14 -11 -17 -8 -24 hhcurveto
          -46 hlineto
          158 callsubr
          -141 386 rmoveto
          -73 callgsubr
          383 -104 callgsubr
          endchar
        </CharString>
        <CharString name="dvB_RA">
          8 214 82 rmoveto
          204 callgsubr
          72 72 rlineto
          14 12 50 55 0 vvcurveto
          4 -97 422 callsubr
          8 vhcurveto
          65 -75 callsubr
          -521 -56 callgsubr
          342 440 callgsubr
          -291 vlineto
          -7 372 callsubr
          -170 163 rlineto
          283 callsubr
          hlineto
          -78 224 rmoveto
          12 1 11 3 10 vhcurveto
          177 -169 rlineto
          -13 -12 -18 -7 -24 hhcurveto
          -46 hlineto
          158 callsubr
          endchar
        </CharString>
        <CharString name="dvB_SA">
          405 745 344 rmoveto
          368 callsubr
          vhcurveto
          -175 4 hlineto
          17 -65 callsubr
          141 -89 callsubr
          -528 -377 rmoveto
          -16 callsubr
          485 -15 callgsubr
          -21 -17 -31 vhcurveto
          -69 312 callgsubr
          -73 -21 callgsubr
          70 50 35 66 19 hvcurveto
          98 -165 561 callgsubr
          60 hlineto
          10 7 7 221 callgsubr
          -2 4 hvcurveto
          -133 218 rlineto
          280 200 callgsubr
          -220 vlineto
          -14 6 373 callgsubr
          12 -106 callsubr
          endchar
        </CharString>
        <CharString name="dvB_SHA">
          426 303 605 rmoveto
          12 -6 6 -14 vhcurveto
          -288 -56 callgsubr
          288 -2 callsubr
          -86 -408 rmoveto
          466 callgsubr
          -171 rlineto
          -9 -13 -17 -4 -22 hhcurveto
          102 283 rmoveto
          -13 6 -6 14 375 callgsubr
          -10 callsubr
          52 vlineto
          40 15 18 42 41 15 -19 -40 vhcurveto
          -90 480 callgsubr
          -116 hlineto
          -15 455 callsubr
          -65 vlineto
          -8 -1 -8 -1 -7 vhcurveto
          -177 168 rlineto
          7 12 497 callgsubr
          339 callgsubr
          -101 183 callsubr
          -100 61 -60 99 vhcurveto
          53 hlineto
          71 50 35 68 18 hvcurveto
          117 -167 561 callgsubr
          62 hlineto
          10 7 8 9 4 -2 6 -3 4 hvcurveto
          -156 214 rlineto
          40 hlineto
          110 55 20 callsubr
          434 138 rmoveto
          -23 -14 -16 -22 hvcurveto
          -566 vlineto
          -44 callgsubr
        </CharString>
        <CharString name="dvB_TA">
          297 217 154 rmoveto
          -16 callsubr
          633 -12 callgsubr
          -90 -4 callgsubr
          -121 hlineto
          -98 -60 -54 -104 hvcurveto
          -34 -21 callgsubr
          37 31 10 18 25 hvcurveto
          -70 15 49 -34 79 hhcurveto
          -79 callsubr
        </CharString>
        <CharString name="dvB_VA">
          297 217 154 rmoveto
          -16 callsubr
          632 -22 callsubr
          -71 -21 callgsubr
          53 41 20 38 25 hvcurveto
          -36 27 44 -19 57 hhcurveto
          -28 callgsubr
        </CharString>
        <CharString name="dvB_YA">
          368 708 -96 callgsubr
          -491 -377 rmoveto
          -16 callsubr
          434 18 callgsubr
          -105 vlineto
          -10 vlineto
          -5 vlineto
          -19 -21 callgsubr
          59 45 25 47 24 hvcurveto
          -38 32 50 -26 68 hhcurveto
          52 hlineto
          56 40 20 33 18 hvcurveto
          4 -118 hlineto
          -55 callsubr
          endchar
        </CharString>
        <CharString name="dvC">
          -159 459 543 rmoveto
          9 callgsubr
          6 -13 vhcurveto
          -464 -56 callgsubr
          324 -454 rmoveto
          81 50 50 40 25 hvcurveto
          2 2 2 357 callgsubr
          7 vhcurveto
          -20 16 rlineto
          6 -8 -4 1 -4 hhcurveto
          -8 -6 -6 -7 -7 hvcurveto
          -23 -21 -21 -28 -51 hhcurveto
          -46 51 callsubr
          -39 vvcurveto
          -30 535 callsubr
          endchar
        </CharString>
        <CharString name="dvCA">
          78 141 361 rmoveto
          549 callgsubr
          -39 vvcurveto
          -30 535 callsubr
          58 hlineto
          54 30 21 27 14 hvcurveto
          4 -117 82 callsubr
          hlineto
          endchar
        </CharString>
        <CharString name="dvCH">
          61 -5 623 201 callsubr
          143 vlineto
          85 -42 44 -86 vhcurveto
          -41 -56 callgsubr
          34 hlineto
          32 15 -17 -30 hvcurveto
          -133 -21 callsubr
          356 183 callgsubr
        </CharString>
        <CharString name="dvCHA">
          61 340 181 callgsubr
          32 15 -17 -30 hvcurveto
          -90 -21 callsubr
          177 hlineto
          9 -1 3 225 callgsubr
          -5 -5 0 -6 hhcurveto
          -386 205 201 callsubr
          90 callsubr
        </CharString>
        <CharString name="dvCH_RA">
          61 340 181 callgsubr
          32 15 -17 -30 hvcurveto
          -90 -21 callsubr
          177 hlineto
          9 -1 3 225 callgsubr
          -5 -5 0 -6 hhcurveto
          -386 205 141 callsubr
          -81 46 -48 76 -11 vhcurveto
          -77 -102 0 callsubr
          -76 102 rlineto
          84 10 40 66 71 vvcurveto
          90 callsubr
        </CharString>
        <CharString name="dvCH_R_YA">
          565 905 239 rmoveto
          -57 -34 -60 -82 vhcurveto
          -25 hlineto
          -68 -34 21 62 hvcurveto
          10 hlineto
          80 64 30 99 89 -59 37 -84 hvcurveto
          -333 -56 callgsubr
          34 hlineto
          32 15 -17 -30 hvcurveto
          -133 -21 callsubr
          682 290 callsubr
          -910 92 141 callsubr
          -86 52 -49 84 -6 vhcurveto
          -81 -108 0 callsubr
          -82 109 rlineto
          81 13 39 64 70 vvcurveto
          143 vlineto
          18 -2 17 -4 14 vhcurveto
          172 hlineto
          37 17 -13 -35 -35 -16 -17 -38 hvcurveto
          -80 hlineto
          -14 -5 -6 -13 hvcurveto
          -60 vlineto
          -91 51 -65 564 callsubr
          57 37 20 33 19 hvcurveto
          4 -79 hlineto
          -14 7 -5 12 vhcurveto
          53 hlineto
          13 6 -10 callgsubr
          3 5 8 vhcurveto
          67 hlineto
          15 4 6 13 hvcurveto
          42 442 callgsubr
          endchar
        </CharString>
        <CharString name="dvCH_YA">
          560 900 246 rmoveto
          -58 -34 -60 -82 vhcurveto
          -25 hlineto
          -68 354 callsubr
          -59 39 -84 hvcurveto
          -328 hlineto
          52 callgsubr
          -6 13 vhcurveto
          34 hlineto
          32 15 -16 -30 hvcurveto
          -141 -21 callsubr
          677 290 callsubr
          -905 92 201 callsubr
          152 vlineto
          18 -2 17 -4 14 vhcurveto
          167 hlineto
          37 17 -14 -35 -36 -16 -17 -38 507 callsubr
          564 callsubr
          57 37 20 34 19 hvcurveto
          4 -86 hlineto
          -14 7 -5 12 vhcurveto
          53 hlineto
          13 6 -10 callgsubr
          3 5 8 vhcurveto
          67 281 callsubr
        </CharString>
        <CharString name="dvC_CA">
          392 -76 callsubr
          725 182 callgsubr
          -27 27 53 hvcurveto
          33 vlineto
          54 26 28 50 vhcurveto
          56 hlineto
          13 6 6 12 hvcurveto
          44 140 callgsubr
          -253 126 callsubr
          -44 vlineto
          -13 5 -5 14 vhcurveto
          73 381 callsubr
          -39 vvcurveto
          -30 vlineto
          -6 0 -7 1 -6 vhcurveto
          -5 -4 rlineto
          -23 -20 -21 -29 -52 hhcurveto
          -46 hlineto
          -55 -27 27 53 hvcurveto
          33 vlineto
          54 26 28 50 vhcurveto
          16 hlineto
          13 6 6 12 hvcurveto
          44 140 callgsubr
          -239 126 callsubr
          -44 vlineto
          -13 5 -5 14 vhcurveto
          99 381 callsubr
          -39 vvcurveto
          -30 535 callsubr
          62 hlineto
          56 41 24 28 29 hvcurveto
          -34 26 43 -18 57 hhcurveto
          234 callsubr
          endchar
        </CharString>
        <CharString name="dvC_CHA">
          415 694 181 callgsubr
          32 15 -17 -30 hvcurveto
          -90 -21 callsubr
          177 hlineto
          9 -1 3 225 callgsubr
          -5 -5 0 -6 hhcurveto
          -740 205 -99 callgsubr
          452 85 callsubr
          -3 vlineto
          -21 -19 -22 -23 -46 hhcurveto
          -57 51 callsubr
          -39 vvcurveto
          -30 535 callsubr
          73 hlineto
          39 32 12 16 26 hvcurveto
          -51 22 51 -27 71 hhcurveto
          348 callgsubr
          90 callsubr
        </CharString>
</ttFont>
